<svg xmlns="http://www.w3.org/2000/svg" xmlns:xlink="http://www.w3.org/1999/xlink" width="150" zoomAndPan="magnify" viewBox="0 0 150 60" height="60" preserveAspectRatio="xMidYMid meet" version="1.0"><defs><g/><clipPath id="8858f95aaa"><path d="M 76.070312 153.550781 L 144 153.550781 L 144 221.800781 L 76.070312 221.800781 Z M 76.070312 153.550781 " clip-rule="nonzero"/></clipPath><clipPath id="2dcc19645f"><path d="M 179.289062 169.425781 L 231 169.425781 L 231 195.675781 L 179.289062 195.675781 Z M 179.289062 169.425781 " clip-rule="nonzero"/></clipPath></defs><rect x="-37.5" width="450" fill="#ffffff" y="-37.499999" height="449.999989" fill-opacity="1"/><rect x="-37.5" width="450" fill="#ffffff" y="-37.499999" height="449.999989" fill-opacity="1"/><g clip-path="url(#8858f95aaa)"><path fill="#ffffff" d="M 120.804688 164.335938 L 113.636719 171.566406 L 110.019531 175.179688 L 98.867188 186.273438 L 95.253906 182.65625 L 117.191406 160.71875 L 110.019531 153.550781 L 76.070312 187.5 L 110.019531 221.449219 L 143.96875 187.5 Z M 94.089844 191.113281     L 94.089844 183.882812 L 108.855469 198.652344 L 105.242188 202.265625 Z M 113.636719 203.429688 L 106.40625 203.429688 L 121.175781 188.664062 L 124.789062 192.277344 Z M 125.953125 191.113281 L 111.246094 176.34375 L 114.863281 172.730469 L 126.015625 183.882812 Z M 125.953125 191.113281 " fill-opacity="1" fill-rule="nonzero"/></g><g clip-path="url(#2dcc19645f)"><path fill="#5e17eb" d="M 224.882812 176.8125 L 223.578125 176.8125 L 223.578125 178.117188 L 224.882812 178.117188 Z M 221.671875 176.8125 L 220.367188 176.8125 L 220.367188 178.117188 L 221.671875 178.117188 Z M 218.460938 176.8125 L 217.160156 176.8125 L 217.160156 178.117188 L 218.460938 178.117188 Z M 221.300781 182.488281 L 227.699219 182.488281 L 227.699219 172.59375 L 212.925781 172.59375 L 212.925781 187.894531 L 212.980469 187.894531 C 213.269531 187.371094 213.582031 186.847656 213.898438 186.347656 L 215.019531 184.683594 L 216.457031 182.550781 L 216.472656 182.523438 L 216.472656 182.488281 Z M 218.664062 185.472656 L 216.707031 187.6875 L 221.960938 195.328125 L 217.050781 195.328125 L 213.953125 190.050781 L 212.925781 191.308594 L 212.925781 195.328125 L 208.9375 195.328125 L 208.9375 176.683594 L 208.945312 176.683594 L 208.945312 169.425781 L 230.851562 169.425781 L 230.851562 185.472656 Z M 203.300781 195.328125 L 207.289062 195.328125 L 207.289062 177.628906 L 203.300781 177.628906 Z M 197.65625 189.261719 C 195.554688 189.234375 193.929688 189.734375 193.929688 191.285156 C 193.929688 192.308594 194.613281 192.804688 195.503906 192.804688 C 196.5 192.804688 197.316406 192.148438 197.578125 191.335938 C 197.628906 191.125 197.65625 190.890625 197.65625 190.652344 Z M 201.542969 192.203125 C 201.542969 193.4375 201.59375 194.617188 201.726562 195.328125 L 198.128906 195.328125 L 197.894531 194.039062 L 197.816406 194.039062 C 196.972656 195.066406 195.660156 195.617188 194.140625 195.617188 C 191.539062 195.617188 189.988281 193.726562 189.988281 191.675781 C 189.988281 188.34375 192.984375 186.742188 197.527344 186.769531 L 197.527344 186.582031 C 197.527344 185.902344 197.15625 184.929688 195.1875 184.929688 C 193.875 184.929688 192.484375 185.375 191.644531 185.902344 L 190.910156 183.328125 C 191.800781 182.828125 193.5625 182.199219 195.898438 182.199219 C 200.175781 182.199219 201.542969 184.71875 201.542969 187.738281 Z M 192.910156 177.628906 L 192.910156 180.992188 L 188.160156 180.992188 L 188.160156 195.328125 L 184.144531 195.328125 L 184.144531 178.894531 L 182.894531 180.992188 L 179.3125 180.992188 L 179.3125 177.628906 L 192.910156 177.628906 " fill-opacity="1" fill-rule="nonzero"/></g><g fill="#5e17eb" fill-opacity="1"><g transform="translate(100.535153, 197.249987)"><g><path d="M 10.921875 -25.796875 L 11.078125 -25.921875 C 11.078125 -26.609375 11.082031 -27.378906 11.09375 -28.234375 C 11.113281 -29.085938 11.160156 -29.863281 11.234375 -30.5625 L 11.640625 -30.5625 C 11.671875 -30.5625 11.710938 -30.550781 11.765625 -30.53125 C 11.816406 -30.519531 11.910156 -30.515625 12.046875 -30.515625 L 12.796875 -30.359375 L 13.515625 -30.203125 C 13.597656 -30.171875 13.71875 -30.15625 13.875 -30.15625 L 14.046875 -30.15625 L 17.59375 -29.3125 C 17.726562 -29.3125 17.804688 -29.257812 17.828125 -29.15625 C 17.859375 -29.050781 17.875 -28.957031 17.875 -28.875 C 17.875 -28.5625 17.796875 -28.132812 17.640625 -27.59375 C 17.535156 -27.300781 17.453125 -27.03125 17.390625 -26.78125 C 17.335938 -26.53125 17.3125 -26.296875 17.3125 -26.078125 L 18.953125 -26.078125 C 19.617188 -26.078125 20.207031 -26.082031 20.71875 -26.09375 C 21.226562 -26.113281 21.828125 -26.148438 22.515625 -26.203125 L 22.640625 -28.28125 C 22.671875 -28.601562 22.691406 -28.929688 22.703125 -29.265625 C 22.710938 -29.597656 22.742188 -29.9375 22.796875 -30.28125 C 22.796875 -30.4375 22.890625 -30.503906 23.078125 -30.484375 C 23.160156 -30.453125 23.269531 -30.4375 23.40625 -30.4375 C 23.664062 -30.4375 24.140625 -30.390625 24.828125 -30.296875 C 25.523438 -30.203125 26.222656 -30.085938 26.921875 -29.953125 C 27.609375 -29.796875 28.238281 -29.601562 28.8125 -29.375 C 29.394531 -29.15625 29.6875 -28.894531 29.6875 -28.59375 L 29.6875 -28.4375 L 29.28125 -28.046875 C 29.125 -27.828125 28.988281 -27.644531 28.875 -27.5 C 28.769531 -27.351562 28.734375 -27.171875 28.765625 -26.953125 L 28.765625 -26.359375 L 30.40625 -26.359375 C 30.664062 -26.328125 30.914062 -26.335938 31.15625 -26.390625 C 31.394531 -26.453125 31.632812 -26.535156 31.875 -26.640625 C 32.25 -26.742188 32.597656 -26.957031 32.921875 -27.28125 C 33.054688 -27.414062 33.207031 -27.515625 33.375 -27.578125 C 33.550781 -27.648438 33.742188 -27.710938 33.953125 -27.765625 C 34.378906 -27.765625 34.726562 -27.628906 35 -27.359375 L 35.765625 -26.640625 L 36.15625 -26.234375 C 36.207031 -26.128906 36.28125 -26.03125 36.375 -25.9375 C 36.46875 -25.84375 36.570312 -25.726562 36.6875 -25.59375 C 36.789062 -25.46875 36.875 -25.347656 36.9375 -25.234375 C 37.007812 -25.128906 37.097656 -25.035156 37.203125 -24.953125 L 37.5625 -24.515625 L 37.640625 -24.359375 L 37.71875 -24.078125 C 37.71875 -23.992188 37.675781 -23.925781 37.59375 -23.875 C 37.519531 -23.820312 37.457031 -23.796875 37.40625 -23.796875 L 28.921875 -23.796875 L 28.921875 -21.71875 L 28.765625 -21.4375 C 28.597656 -21.300781 28.273438 -21.171875 27.796875 -21.046875 C 27.316406 -20.929688 26.785156 -20.847656 26.203125 -20.796875 L 24.59375 -20.6875 C 24.351562 -20.65625 24.160156 -20.628906 24.015625 -20.609375 C 23.867188 -20.597656 23.769531 -20.59375 23.71875 -20.59375 L 22.953125 -20.59375 L 22.796875 -20.765625 C 22.796875 -20.816406 22.769531 -20.867188 22.71875 -20.921875 L 22.640625 -21 L 22.640625 -23.5625 L 22.359375 -23.6875 C 21.960938 -23.6875 21.554688 -23.6875 21.140625 -23.6875 C 20.722656 -23.6875 20.316406 -23.671875 19.921875 -23.640625 C 19.515625 -23.609375 19.101562 -23.585938 18.6875 -23.578125 C 18.28125 -23.566406 17.878906 -23.5625 17.484375 -23.5625 C 17.398438 -23.5625 17.347656 -23.503906 17.328125 -23.390625 C 17.316406 -23.285156 17.3125 -23.195312 17.3125 -23.125 C 17.3125 -23.039062 17.316406 -22.9375 17.328125 -22.8125 C 17.347656 -22.695312 17.398438 -22.613281 17.484375 -22.5625 C 17.960938 -22.320312 18.441406 -22.09375 18.921875 -21.875 C 19.398438 -21.664062 19.90625 -21.46875 20.4375 -21.28125 C 20.96875 -21.09375 21.476562 -20.890625 21.96875 -20.671875 C 22.46875 -20.460938 22.945312 -20.253906 23.40625 -20.046875 L 23.5625 -19.875 L 23.28125 -19.3125 L 21.484375 -17.640625 L 21.484375 -17.515625 C 21.859375 -17.515625 22.238281 -17.515625 22.625 -17.515625 C 23.007812 -17.515625 23.414062 -17.503906 23.84375 -17.484375 C 24.269531 -17.453125 24.6875 -17.429688 25.09375 -17.421875 C 25.507812 -17.410156 25.945312 -17.40625 26.40625 -17.40625 C 27.257812 -17.40625 28.097656 -17.4375 28.921875 -17.5 C 29.742188 -17.5625 30.539062 -17.703125 31.3125 -17.921875 C 31.613281 -17.972656 31.863281 -18.101562 32.0625 -18.3125 C 32.257812 -18.53125 32.453125 -18.742188 32.640625 -18.953125 C 32.796875 -19.171875 32.976562 -19.351562 33.1875 -19.5 C 33.40625 -19.644531 33.660156 -19.71875 33.953125 -19.71875 L 34.125 -19.71875 C 34.4375 -19.507812 34.757812 -19.238281 35.09375 -18.90625 C 35.425781 -18.570312 35.753906 -18.21875 36.078125 -17.84375 L 37.71875 -15.6875 L 37.71875 -15.515625 C 37.71875 -15.378906 37.648438 -15.269531 37.515625 -15.1875 C 37.378906 -15.113281 37.234375 -15.078125 37.078125 -15.078125 C 34.085938 -15.078125 31.113281 -15.0625 28.15625 -15.03125 C 25.195312 -15.007812 22.222656 -14.929688 19.234375 -14.796875 C 19.023438 -14.796875 18.828125 -14.625 18.640625 -14.28125 L 18.125 -13.5625 L 16.515625 -11.5625 C 16.378906 -11.394531 16.269531 -11.257812 16.1875 -11.15625 C 16.113281 -11.050781 16.050781 -10.957031 16 -10.875 L 16.125 -10.71875 L 21.3125 -10.71875 C 21.375 -10.71875 21.457031 -10.71875 21.5625 -10.71875 C 21.664062 -10.71875 21.796875 -10.734375 21.953125 -10.765625 C 22.140625 -10.765625 22.328125 -10.765625 22.515625 -10.765625 C 22.703125 -10.765625 22.90625 -10.773438 23.125 -10.796875 L 24.234375 -10.875 L 24.921875 -10.875 C 25.054688 -10.875 25.222656 -10.878906 25.421875 -10.890625 C 25.617188 -10.910156 25.785156 -10.960938 25.921875 -11.046875 C 26.078125 -11.097656 26.222656 -11.269531 26.359375 -11.5625 C 26.460938 -11.820312 26.5625 -12.066406 26.65625 -12.296875 C 26.75 -12.523438 26.878906 -12.742188 27.046875 -12.953125 C 27.203125 -13.140625 27.425781 -13.234375 27.71875 -13.234375 C 27.875 -13.234375 27.976562 -13.234375 28.03125 -13.234375 C 28.09375 -13.234375 28.1875 -13.207031 28.3125 -13.15625 L 33.796875 -9.765625 L 33.953125 -9.59375 C 34.015625 -9.59375 34.054688 -9.539062 34.078125 -9.4375 C 34.078125 -9.300781 34.144531 -9.171875 34.28125 -9.046875 C 34.28125 -8.804688 34.195312 -8.628906 34.03125 -8.515625 C 33.875 -8.410156 33.691406 -8.316406 33.484375 -8.234375 C 33.242188 -8.160156 33.039062 -8.066406 32.875 -7.953125 C 32.71875 -7.847656 32.640625 -7.691406 32.640625 -7.484375 L 32.640625 1.15625 C 32.640625 1.34375 32.359375 1.519531 31.796875 1.6875 C 31.234375 1.894531 30.601562 2.097656 29.90625 2.296875 C 29.21875 2.492188 28.539062 2.660156 27.875 2.796875 C 27.5625 2.878906 27.289062 2.929688 27.0625 2.953125 C 26.832031 2.984375 26.664062 3 26.5625 3 C 26.238281 3 26.023438 2.882812 25.921875 2.65625 C 25.816406 2.425781 25.765625 2.207031 25.765625 2 C 25.765625 1.945312 25.765625 1.816406 25.765625 1.609375 C 25.765625 1.410156 25.75 1.207031 25.71875 1 L 25.640625 0.078125 L 17.59375 0.078125 L 16.234375 0.203125 C 16.179688 0.203125 16.15625 0.28125 16.15625 0.4375 C 16.132812 0.488281 16.125 0.5625 16.125 0.65625 C 16.125 0.75 16.125 0.835938 16.125 0.921875 C 16.125 1.398438 16.03125 1.71875 15.84375 1.875 C 15.550781 2.09375 15.171875 2.273438 14.703125 2.421875 C 14.234375 2.566406 13.734375 2.679688 13.203125 2.765625 C 12.671875 2.867188 12.148438 2.929688 11.640625 2.953125 C 11.128906 2.984375 10.6875 3 10.3125 3 L 9.59375 3 L 9.4375 2.875 L 9.4375 1.3125 C 9.4375 0.675781 9.441406 0.0507812 9.453125 -0.5625 C 9.472656 -1.175781 9.492188 -1.789062 9.515625 -2.40625 C 9.546875 -2.988281 9.566406 -3.59375 9.578125 -4.21875 C 9.585938 -4.84375 9.59375 -5.460938 9.59375 -6.078125 L 9.28125 -6.078125 C 8.21875 -5.515625 7.140625 -5.019531 6.046875 -4.59375 C 4.953125 -4.164062 3.84375 -3.726562 2.71875 -3.28125 L 2.28125 -3.125 L 2.125 -3.125 C 1.957031 -3.125 1.859375 -3.207031 1.828125 -3.375 C 1.804688 -3.550781 1.796875 -3.707031 1.796875 -3.84375 L 1.796875 -4 C 2.253906 -4.457031 2.707031 -4.894531 3.15625 -5.3125 C 3.613281 -5.738281 4.066406 -6.140625 4.515625 -6.515625 C 4.972656 -6.890625 5.421875 -7.289062 5.859375 -7.71875 C 6.296875 -8.144531 6.742188 -8.585938 7.203125 -9.046875 L 7.765625 -9.6875 C 7.972656 -9.945312 8.171875 -10.203125 8.359375 -10.453125 C 8.546875 -10.710938 8.742188 -10.972656 8.953125 -11.234375 C 9.066406 -11.398438 9.28125 -11.601562 9.59375 -11.84375 L 11.359375 -14.5625 C 11.328125 -14.644531 11.179688 -14.6875 10.921875 -14.6875 C 10.304688 -14.6875 9.703125 -14.671875 9.109375 -14.640625 C 8.523438 -14.609375 7.957031 -14.554688 7.40625 -14.484375 C 6.863281 -14.398438 6.300781 -14.34375 5.71875 -14.3125 C 5.132812 -14.289062 4.535156 -14.28125 3.921875 -14.28125 C 3.835938 -14.25 3.734375 -14.238281 3.609375 -14.25 C 3.492188 -14.269531 3.4375 -14.320312 3.4375 -14.40625 C 3.414062 -14.457031 3.390625 -14.515625 3.359375 -14.578125 C 3.328125 -14.648438 3.285156 -14.738281 3.234375 -14.84375 L 2.875 -15.484375 C 2.71875 -15.691406 2.582031 -15.894531 2.46875 -16.09375 C 2.363281 -16.300781 2.300781 -16.429688 2.28125 -16.484375 L 2.203125 -16.640625 C 2.171875 -16.722656 2.148438 -16.78125 2.140625 -16.8125 C 2.128906 -16.851562 2.125 -16.890625 2.125 -16.921875 L 2.125 -17.078125 C 3.644531 -17.078125 5.160156 -17.082031 6.671875 -17.09375 C 8.191406 -17.113281 9.753906 -17.148438 11.359375 -17.203125 C 11.492188 -17.203125 11.65625 -17.207031 11.84375 -17.21875 C 12.03125 -17.226562 12.226562 -17.25 12.4375 -17.28125 L 13.125 -17.359375 L 14.765625 -20.4375 L 14.59375 -20.4375 C 14.351562 -20.4375 14.109375 -20.421875 13.859375 -20.390625 C 13.609375 -20.367188 13.347656 -20.316406 13.078125 -20.234375 C 12.816406 -20.160156 12.554688 -20.109375 12.296875 -20.078125 C 12.046875 -20.054688 11.773438 -20.046875 11.484375 -20.046875 C 11.191406 -20.046875 10.96875 -20.0625 10.8125 -20.09375 C 10.664062 -20.132812 10.59375 -20.300781 10.59375 -20.59375 C 10.59375 -21.101562 10.648438 -21.53125 10.765625 -21.875 C 10.867188 -22.164062 10.921875 -22.582031 10.921875 -23.125 C 10.921875 -23.195312 10.90625 -23.257812 10.875 -23.3125 C 10.851562 -23.375 10.757812 -23.40625 10.59375 -23.40625 C 9.632812 -23.34375 8.628906 -23.28125 7.578125 -23.21875 C 6.523438 -23.15625 5.503906 -23.125 4.515625 -23.125 C 4.304688 -23.125 4.1875 -23.109375 4.15625 -23.078125 C 4.082031 -23.054688 4.003906 -23.125 3.921875 -23.28125 C 3.835938 -23.332031 3.710938 -23.472656 3.546875 -23.703125 C 3.390625 -23.929688 3.25 -24.164062 3.125 -24.40625 C 3.039062 -24.53125 2.957031 -24.644531 2.875 -24.75 C 2.800781 -24.863281 2.738281 -24.988281 2.6875 -25.125 L 2.4375 -25.484375 C 2.570312 -25.484375 2.828125 -25.488281 3.203125 -25.5 C 3.578125 -25.507812 3.960938 -25.53125 4.359375 -25.5625 C 4.753906 -25.582031 5.140625 -25.597656 5.515625 -25.609375 C 5.890625 -25.628906 6.15625 -25.640625 6.3125 -25.640625 L 8.84375 -25.640625 C 8.976562 -25.640625 9.164062 -25.644531 9.40625 -25.65625 C 9.644531 -25.675781 9.867188 -25.695312 10.078125 -25.71875 Z M 16.234375 -7.921875 C 16.234375 -7.703125 16.226562 -7.335938 16.21875 -6.828125 C 16.207031 -6.328125 16.1875 -5.8125 16.15625 -5.28125 C 16.15625 -4.71875 16.148438 -4.179688 16.140625 -3.671875 C 16.128906 -3.171875 16.125 -2.8125 16.125 -2.59375 L 16.125 -2.4375 L 16.40625 -2.3125 C 18 -2.375 19.554688 -2.4375 21.078125 -2.5 C 22.597656 -2.5625 24.160156 -2.59375 25.765625 -2.59375 C 25.765625 -3.050781 25.769531 -3.515625 25.78125 -3.984375 C 25.789062 -4.453125 25.8125 -4.925781 25.84375 -5.40625 C 25.863281 -5.882812 25.878906 -6.351562 25.890625 -6.8125 C 25.910156 -7.28125 25.921875 -7.742188 25.921875 -8.203125 L 19.28125 -8.203125 C 19.125 -8.171875 18.957031 -8.15625 18.78125 -8.15625 C 18.601562 -8.15625 18.4375 -8.15625 18.28125 -8.15625 C 18.09375 -8.132812 17.914062 -8.125 17.75 -8.125 C 17.59375 -8.125 17.4375 -8.125 17.28125 -8.125 C 17.125 -8.09375 17.003906 -8.078125 16.921875 -8.078125 C 16.835938 -8.078125 16.769531 -8.078125 16.71875 -8.078125 C 16.582031 -8.078125 16.503906 -8.09375 16.484375 -8.125 C 16.398438 -8.144531 16.316406 -8.078125 16.234375 -7.921875 Z M 16.234375 -7.921875 "/></g></g></g><g fill="#5e17eb" fill-opacity="1"><g transform="translate(140.531175, 197.249987)"><g><path d="M 37.234375 0.4375 C 37.316406 0.519531 37.390625 0.664062 37.453125 0.875 C 37.523438 1.09375 37.5625 1.238281 37.5625 1.3125 C 37.582031 1.613281 37.445312 1.867188 37.15625 2.078125 C 36.863281 2.296875 36.519531 2.46875 36.125 2.59375 C 35.71875 2.757812 35.300781 2.867188 34.875 2.921875 C 34.445312 2.972656 34.140625 3 33.953125 3 C 33.179688 3 32.425781 2.890625 31.6875 2.671875 C 30.957031 2.460938 30.25 2.171875 29.5625 1.796875 C 28.863281 1.453125 28.191406 1.066406 27.546875 0.640625 C 26.910156 0.210938 26.328125 -0.195312 25.796875 -0.59375 C 25.535156 -0.8125 25.21875 -1.175781 24.84375 -1.6875 C 24.65625 -1.863281 24.472656 -2.03125 24.296875 -2.1875 C 24.128906 -2.351562 23.988281 -2.4375 23.875 -2.4375 L 23.71875 -2.4375 L 20.84375 -1.359375 C 19.851562 -0.984375 18.882812 -0.632812 17.9375 -0.3125 C 16.988281 0 16.007812 0.300781 15 0.59375 C 14.039062 0.914062 13.023438 1.15625 11.953125 1.3125 L 11.796875 1.3125 C 11.585938 1.3125 11.414062 1.25 11.28125 1.125 C 11.144531 1.007812 11.078125 0.890625 11.078125 0.765625 C 11.078125 0.460938 11.144531 0.257812 11.28125 0.15625 C 11.414062 0.0507812 11.585938 -0.0664062 11.796875 -0.203125 C 11.847656 -0.222656 11.914062 -0.242188 12 -0.265625 C 12.082031 -0.296875 12.1875 -0.351562 12.3125 -0.4375 L 13.953125 -1.3125 C 14.085938 -1.375 14.195312 -1.429688 14.28125 -1.484375 C 14.363281 -1.535156 14.429688 -1.570312 14.484375 -1.59375 C 14.640625 -1.675781 14.914062 -1.835938 15.3125 -2.078125 C 15.71875 -2.316406 16.144531 -2.570312 16.59375 -2.84375 C 17.050781 -3.132812 17.453125 -3.378906 17.796875 -3.578125 C 18.140625 -3.773438 18.378906 -3.914062 18.515625 -4 C 18.546875 -4.03125 18.585938 -4.070312 18.640625 -4.125 C 18.691406 -4.175781 18.785156 -4.238281 18.921875 -4.3125 L 20.515625 -5.515625 C 20.679688 -5.628906 20.816406 -5.71875 20.921875 -5.78125 C 21.023438 -5.84375 21.101562 -5.898438 21.15625 -5.953125 L 21.484375 -6.234375 L 21.484375 -6.359375 C 21.484375 -6.492188 21.425781 -6.613281 21.3125 -6.71875 C 21.207031 -6.90625 21.15625 -7.023438 21.15625 -7.078125 L 20.765625 -8.359375 L 20.5625 -9 C 20.476562 -9.1875 20.421875 -9.3125 20.390625 -9.375 C 20.367188 -9.445312 20.332031 -9.628906 20.28125 -9.921875 L 19.921875 -11.59375 C 19.890625 -11.726562 19.867188 -11.835938 19.859375 -11.921875 C 19.847656 -12.003906 19.84375 -12.070312 19.84375 -12.125 C 19.757812 -12.195312 19.707031 -12.300781 19.6875 -12.4375 C 19.65625 -12.519531 19.5625 -12.5625 19.40625 -12.5625 C 19.03125 -12.5625 18.648438 -12.539062 18.265625 -12.5 C 17.878906 -12.457031 17.5 -12.410156 17.125 -12.359375 C 16.375 -12.203125 15.585938 -12.125 14.765625 -12.125 C 14.390625 -12.125 14.148438 -12.296875 14.046875 -12.640625 C 13.960938 -12.796875 13.882812 -12.953125 13.8125 -13.109375 C 13.75 -13.273438 13.675781 -13.425781 13.59375 -13.5625 L 13.4375 -13.5625 L 13.4375 -14.125 C 13.894531 -14.175781 14.328125 -14.226562 14.734375 -14.28125 C 15.148438 -14.332031 15.546875 -14.382812 15.921875 -14.4375 C 16.554688 -14.519531 17.15625 -14.59375 17.71875 -14.65625 C 18.28125 -14.726562 18.601562 -14.789062 18.6875 -14.84375 C 19.050781 -14.976562 19.234375 -15.054688 19.234375 -15.078125 C 19.234375 -15.609375 19.171875 -16.160156 19.046875 -16.734375 C 18.929688 -17.304688 18.796875 -17.832031 18.640625 -18.3125 L 18.203125 -18.3125 C 18.015625 -18.3125 17.832031 -18.304688 17.65625 -18.296875 C 17.488281 -18.285156 17.296875 -18.28125 17.078125 -18.28125 C 16.890625 -18.25 16.703125 -18.226562 16.515625 -18.21875 C 16.328125 -18.207031 16.15625 -18.203125 16 -18.203125 L 15.40625 -18.203125 C 15.269531 -18.253906 15.113281 -18.382812 14.9375 -18.59375 C 14.769531 -18.8125 14.617188 -19.050781 14.484375 -19.3125 C 14.316406 -19.5625 14.171875 -19.804688 14.046875 -20.046875 C 13.929688 -20.285156 13.875 -20.46875 13.875 -20.59375 L 15.84375 -20.59375 L 16.921875 -20.6875 C 17.210938 -20.707031 17.484375 -20.722656 17.734375 -20.734375 C 17.992188 -20.753906 18.148438 -20.773438 18.203125 -20.796875 C 18.304688 -20.828125 18.359375 -20.894531 18.359375 -21 L 18.359375 -30.28125 C 18.359375 -30.414062 18.394531 -30.492188 18.46875 -30.515625 C 18.550781 -30.546875 18.660156 -30.5625 18.796875 -30.5625 C 19.140625 -30.5625 19.503906 -30.535156 19.890625 -30.484375 C 20.285156 -30.429688 20.707031 -30.347656 21.15625 -30.234375 L 22.40625 -30 C 22.769531 -29.863281 23.113281 -29.785156 23.4375 -29.765625 L 24.125 -29.515625 L 24.484375 -29.40625 L 24.765625 -29.3125 C 25.160156 -29.1875 25.367188 -29.050781 25.390625 -28.90625 C 25.421875 -28.757812 25.304688 -28.5625 25.046875 -28.3125 C 24.804688 -28.070312 24.601562 -27.738281 24.4375 -27.3125 L 24.4375 -24.765625 C 24.4375 -24.597656 24.4375 -24.441406 24.4375 -24.296875 C 24.4375 -24.148438 24.453125 -24.007812 24.484375 -23.875 C 24.484375 -23.75 24.484375 -23.609375 24.484375 -23.453125 C 24.484375 -23.304688 24.492188 -23.140625 24.515625 -22.953125 C 24.515625 -22.796875 24.519531 -22.628906 24.53125 -22.453125 C 24.550781 -22.285156 24.570312 -22.09375 24.59375 -21.875 L 25.046875 -21.875 C 25.304688 -21.875 25.660156 -21.894531 26.109375 -21.9375 C 26.566406 -21.976562 27.0625 -22.039062 27.59375 -22.125 C 28.132812 -22.175781 28.644531 -22.25 29.125 -22.34375 C 29.601562 -22.4375 29.988281 -22.550781 30.28125 -22.6875 C 30.65625 -22.84375 31.039062 -23.066406 31.4375 -23.359375 C 31.65625 -23.515625 31.851562 -23.648438 32.03125 -23.765625 C 32.21875 -23.890625 32.421875 -23.992188 32.640625 -24.078125 L 33.078125 -23.953125 C 33.078125 -23.929688 33.253906 -23.773438 33.609375 -23.484375 C 33.972656 -23.191406 34.367188 -22.859375 34.796875 -22.484375 C 35.253906 -22.054688 35.828125 -21.5625 36.515625 -21 L 36.515625 -20.84375 L 36.234375 -20.59375 C 35.140625 -20.519531 34.113281 -20.414062 33.15625 -20.28125 C 32.195312 -20.144531 31.1875 -20.007812 30.125 -19.875 L 29.953125 -19.875 L 25.046875 -19.046875 L 24.765625 -18.921875 L 24.765625 -18.484375 C 24.765625 -18.054688 24.769531 -17.609375 24.78125 -17.140625 C 24.789062 -16.671875 24.835938 -16.222656 24.921875 -15.796875 L 25.515625 -15.796875 C 25.648438 -15.796875 25.757812 -15.8125 25.84375 -15.84375 C 25.945312 -15.84375 26.210938 -15.859375 26.640625 -15.890625 C 27.066406 -15.929688 27.554688 -15.984375 28.109375 -16.046875 C 28.671875 -16.117188 29.1875 -16.1875 29.65625 -16.25 C 30.125 -16.320312 30.453125 -16.382812 30.640625 -16.4375 C 31.035156 -16.488281 31.351562 -16.609375 31.59375 -16.796875 C 31.945312 -17.085938 32.269531 -17.460938 32.5625 -17.921875 C 32.882812 -18.398438 33.203125 -18.773438 33.515625 -19.046875 L 34.875 -18.234375 C 35.96875 -17.648438 36.8125 -16.929688 37.40625 -16.078125 C 37.695312 -15.628906 37.84375 -15.125 37.84375 -14.5625 C 37.414062 -14.5625 36.953125 -14.5625 36.453125 -14.5625 C 35.960938 -14.5625 35.4375 -14.570312 34.875 -14.59375 C 34.34375 -14.59375 33.816406 -14.566406 33.296875 -14.515625 C 32.773438 -14.460938 32.265625 -14.382812 31.765625 -14.28125 C 32.503906 -13.71875 33.253906 -13.113281 34.015625 -12.46875 C 34.773438 -11.832031 35.460938 -11.207031 36.078125 -10.59375 L 36.078125 -10.4375 C 36.078125 -10.300781 36.007812 -10.179688 35.875 -10.078125 C 35.75 -9.972656 35.578125 -9.851562 35.359375 -9.71875 C 35.253906 -9.664062 35.144531 -9.617188 35.03125 -9.578125 C 34.925781 -9.535156 34.820312 -9.488281 34.71875 -9.4375 C 34.5625 -9.332031 34.414062 -9.253906 34.28125 -9.203125 L 33.359375 -8.515625 C 33.148438 -8.328125 32.953125 -8.160156 32.765625 -8.015625 C 32.578125 -7.867188 32.375 -7.726562 32.15625 -7.59375 L 31 -6.765625 L 30.40625 -6.359375 C 30.375 -6.328125 30.320312 -6.28125 30.25 -6.21875 C 30.1875 -6.15625 30.085938 -6.082031 29.953125 -6 C 29.847656 -5.863281 29.757812 -5.769531 29.6875 -5.71875 C 29.625 -5.664062 29.566406 -5.613281 29.515625 -5.5625 C 29.597656 -5.1875 29.851562 -4.859375 30.28125 -4.578125 C 30.707031 -4.296875 31.144531 -4.15625 31.59375 -4.15625 C 32.070312 -4.15625 32.507812 -4.421875 32.90625 -4.953125 C 33.3125 -5.492188 33.703125 -6.082031 34.078125 -6.71875 C 34.265625 -7.0625 34.4375 -7.378906 34.59375 -7.671875 C 34.757812 -7.972656 34.921875 -8.253906 35.078125 -8.515625 C 35.367188 -9.046875 35.648438 -9.3125 35.921875 -9.3125 C 36.210938 -9.3125 36.476562 -9.269531 36.71875 -9.1875 C 36.957031 -9.113281 37.078125 -8.929688 37.078125 -8.640625 C 37.078125 -8.128906 37.03125 -7.644531 36.9375 -7.1875 C 36.84375 -6.738281 36.726562 -6.289062 36.59375 -5.84375 C 36.4375 -5.382812 36.3125 -4.925781 36.21875 -4.46875 C 36.125 -4.019531 36.078125 -3.570312 36.078125 -3.125 C 36.078125 -2.9375 36.082031 -2.660156 36.09375 -2.296875 C 36.113281 -1.941406 36.160156 -1.65625 36.234375 -1.4375 C 36.234375 -1.382812 36.285156 -1.265625 36.390625 -1.078125 C 36.503906 -0.890625 36.628906 -0.691406 36.765625 -0.484375 L 37.046875 0.078125 C 37.117188 0.316406 37.179688 0.4375 37.234375 0.4375 Z M 6.484375 -8.359375 L 12.5625 -20.3125 C 12.664062 -20.207031 12.769531 -20.238281 12.875 -20.40625 C 12.875 -20.21875 12.820312 -19.734375 12.71875 -18.953125 C 12.613281 -18.179688 12.476562 -17.234375 12.3125 -16.109375 C 12.15625 -14.992188 11.988281 -13.820312 11.8125 -12.59375 C 11.644531 -11.375 11.476562 -10.203125 11.3125 -9.078125 C 11.15625 -7.960938 11.023438 -7.003906 10.921875 -6.203125 C 10.816406 -5.398438 10.765625 -4.894531 10.765625 -4.6875 C 10.734375 -4.3125 10.710938 -3.945312 10.703125 -3.59375 C 10.691406 -3.25 10.6875 -2.90625 10.6875 -2.5625 C 10.65625 -2.21875 10.640625 -1.882812 10.640625 -1.5625 C 10.640625 -1.238281 10.640625 -0.914062 10.640625 -0.59375 L 10.359375 0.15625 C 10.253906 0.507812 10.117188 0.835938 9.953125 1.140625 C 9.796875 1.441406 9.597656 1.703125 9.359375 1.921875 C 9.171875 2.160156 8.890625 2.28125 8.515625 2.28125 C 7.828125 2.28125 7.210938 2.117188 6.671875 1.796875 C 6.140625 1.472656 5.660156 1.0625 5.234375 0.5625 C 5.023438 0.320312 4.828125 0.0820312 4.640625 -0.15625 C 4.453125 -0.394531 4.289062 -0.660156 4.15625 -0.953125 C 3.96875 -1.253906 3.796875 -1.535156 3.640625 -1.796875 C 3.484375 -2.066406 3.335938 -2.332031 3.203125 -2.59375 L 3.046875 -2.765625 L 3.203125 -2.84375 C 3.335938 -3.132812 3.46875 -3.351562 3.59375 -3.5 C 3.726562 -3.644531 3.863281 -3.769531 4 -3.875 C 4.1875 -4.0625 4.320312 -4.171875 4.40625 -4.203125 L 4.84375 -4.6875 C 5.132812 -5.1875 5.4375 -5.796875 5.75 -6.515625 C 6.070312 -7.234375 6.316406 -7.847656 6.484375 -8.359375 Z M 5.203125 -27.84375 C 4.960938 -28 4.84375 -28.117188 4.84375 -28.203125 L 4.84375 -28.4375 C 4.84375 -28.8125 5.015625 -29.050781 5.359375 -29.15625 C 5.703125 -29.257812 6.019531 -29.3125 6.3125 -29.3125 C 6.925781 -29.3125 7.597656 -29.265625 8.328125 -29.171875 C 9.066406 -29.085938 9.796875 -28.9375 10.515625 -28.71875 C 11.210938 -28.507812 11.851562 -28.222656 12.4375 -27.859375 C 13.019531 -27.492188 13.5 -27.046875 13.875 -26.515625 L 13.875 -25.796875 L 12.796875 -23.875 C 12.472656 -23.375 12.097656 -22.875 11.671875 -22.375 C 11.253906 -21.882812 10.800781 -21.519531 10.3125 -21.28125 L 10.15625 -21.28125 C 9.570312 -21.726562 9.125 -22.222656 8.8125 -22.765625 C 8.507812 -23.316406 8.171875 -23.898438 7.796875 -24.515625 C 7.398438 -25.179688 7.128906 -25.640625 6.984375 -25.890625 C 6.835938 -26.148438 6.722656 -26.316406 6.640625 -26.390625 C 6.554688 -26.472656 6.445312 -26.570312 6.3125 -26.6875 C 6.1875 -26.8125 5.9375 -27.078125 5.5625 -27.484375 C 5.5625 -27.535156 5.441406 -27.65625 5.203125 -27.84375 Z M 7.359375 -13 L 7.046875 -13 C 6.484375 -13.53125 5.988281 -14.101562 5.5625 -14.71875 C 5.132812 -15.332031 4.734375 -15.945312 4.359375 -16.5625 C 3.984375 -17.195312 3.601562 -17.820312 3.21875 -18.4375 C 2.832031 -19.050781 2.375 -19.625 1.84375 -20.15625 L 1.84375 -20.3125 C 1.84375 -20.53125 1.90625 -20.769531 2.03125 -21.03125 C 2.164062 -21.300781 2.351562 -21.4375 2.59375 -21.4375 C 3.050781 -21.4375 3.707031 -21.351562 4.5625 -21.1875 C 5.414062 -21.03125 6.269531 -20.78125 7.125 -20.4375 C 7.976562 -20.113281 8.722656 -19.71875 9.359375 -19.25 C 9.992188 -18.789062 10.3125 -18.253906 10.3125 -17.640625 C 10.3125 -17.347656 10.195312 -16.945312 9.96875 -16.4375 C 9.75 -15.9375 9.476562 -15.429688 9.15625 -14.921875 C 8.84375 -14.390625 8.519531 -13.9375 8.1875 -13.5625 C 7.851562 -13.1875 7.578125 -13 7.359375 -13 Z M 26.796875 -25.796875 C 26.722656 -26.015625 26.625 -26.328125 26.5 -26.734375 C 26.375 -27.148438 26.25 -27.585938 26.125 -28.046875 L 25.6875 -29.6875 C 25.945312 -29.6875 26.359375 -29.617188 26.921875 -29.484375 C 27.484375 -29.347656 28.082031 -29.179688 28.71875 -28.984375 C 29.363281 -28.785156 29.894531 -28.59375 30.3125 -28.40625 C 30.925781 -28.101562 31.46875 -27.769531 31.9375 -27.40625 C 32.40625 -27.050781 32.640625 -26.648438 32.640625 -26.203125 C 32.640625 -25.453125 32.226562 -24.796875 31.40625 -24.234375 C 31.03125 -23.941406 30.648438 -23.675781 30.265625 -23.4375 C 29.878906 -23.195312 29.523438 -23 29.203125 -22.84375 L 29.046875 -22.84375 C 28.671875 -22.84375 28.347656 -23.007812 28.078125 -23.34375 C 27.816406 -23.675781 27.578125 -24.054688 27.359375 -24.484375 C 27.253906 -24.691406 27.15625 -24.910156 27.0625 -25.140625 C 26.96875 -25.367188 26.878906 -25.585938 26.796875 -25.796875 Z M 26.5625 -10.59375 L 26.6875 -10.59375 C 26.84375 -10.707031 27.070312 -10.921875 27.375 -11.234375 C 27.6875 -11.554688 28.007812 -11.90625 28.34375 -12.28125 C 28.675781 -12.65625 28.988281 -13 29.28125 -13.3125 C 29.570312 -13.632812 29.796875 -13.847656 29.953125 -13.953125 L 29.515625 -13.953125 C 28.773438 -13.953125 28.039062 -13.890625 27.3125 -13.765625 C 26.59375 -13.648438 25.890625 -13.53125 25.203125 -13.40625 L 25.203125 -13.234375 C 25.203125 -13.234375 25.269531 -13.078125 25.40625 -12.765625 C 25.53125 -12.460938 25.664062 -12.148438 25.8125 -11.828125 C 25.96875 -11.515625 26.125 -11.238281 26.28125 -11 C 26.382812 -10.726562 26.476562 -10.59375 26.5625 -10.59375 Z M 12.875 -20.40625 L 12.875 -20.5625 Z M 12.875 -20.40625 "/></g></g></g><g fill="#5e17eb" fill-opacity="1"><g transform="translate(180.527335, 197.249987)"><g/></g></g><g fill="#5e17eb" fill-opacity="1"><g transform="translate(204.524953, 197.249987)"><g/></g></g><g fill="#5e17eb" fill-opacity="1"><g transform="translate(228.527332, 197.249987)"><g><path d="M 17.53125 -8.40625 L 9.28125 -8.40625 L 7.96875 -4 C 7.726562 -3.175781 7.71875 -2.5625 7.9375 -2.15625 C 8.164062 -1.757812 8.476562 -1.5 8.875 -1.375 C 9.28125 -1.257812 9.59375 -1.203125 9.8125 -1.203125 L 10.203125 -1.203125 C 10.335938 -1.203125 10.476562 -1.132812 10.625 -1 C 10.769531 -0.863281 10.832031 -0.71875 10.8125 -0.5625 C 10.78125 -0.289062 10.664062 -0.128906 10.46875 -0.078125 C 10.269531 -0.0234375 9.984375 0 9.609375 0 L 2.359375 0 C 1.742188 0.101562 1.359375 0.0351562 1.203125 -0.203125 C 1.046875 -0.441406 1.050781 -0.6875 1.21875 -0.9375 C 1.394531 -1.1875 1.644531 -1.273438 1.96875 -1.203125 L 2.359375 -1.28125 C 2.546875 -1.28125 2.8125 -1.363281 3.15625 -1.53125 C 3.507812 -1.707031 3.804688 -1.90625 4.046875 -2.125 C 4.421875 -2.46875 4.757812 -2.878906 5.0625 -3.359375 C 5.375 -3.835938 5.59375 -4.265625 5.71875 -4.640625 L 13.484375 -26.5625 C 13.671875 -27.09375 13.847656 -27.507812 14.015625 -27.8125 C 14.191406 -28.125 14.457031 -28.28125 14.8125 -28.28125 C 15.15625 -28.300781 15.410156 -28.195312 15.578125 -27.96875 C 15.753906 -27.75 15.960938 -27.332031 16.203125 -26.71875 L 25.359375 -4.640625 C 25.390625 -4.503906 25.59375 -4.128906 25.96875 -3.515625 L 26.765625 -2.3125 C 26.953125 -2.050781 27.191406 -1.816406 27.484375 -1.609375 C 27.773438 -1.410156 28.039062 -1.300781 28.28125 -1.28125 L 28.609375 -1.203125 C 28.847656 -1.253906 29.019531 -1.1875 29.125 -1 C 29.226562 -0.8125 29.242188 -0.609375 29.171875 -0.390625 C 29.109375 -0.179688 28.921875 -0.0507812 28.609375 0 L 17.328125 0 C 16.953125 0 16.679688 -0.03125 16.515625 -0.09375 C 16.359375 -0.164062 16.296875 -0.347656 16.328125 -0.640625 C 16.378906 -0.960938 16.628906 -1.148438 17.078125 -1.203125 L 17.71875 -1.28125 C 17.9375 -1.28125 18.191406 -1.335938 18.484375 -1.453125 C 18.773438 -1.578125 19.003906 -1.785156 19.171875 -2.078125 C 19.328125 -2.398438 19.390625 -2.757812 19.359375 -3.15625 C 19.335938 -3.5625 19.300781 -3.859375 19.25 -4.046875 Z M 9.890625 -10.125 L 17.078125 -10.125 L 13.359375 -19.765625 Z M 9.890625 -10.125 "/></g></g></g><g fill="#5e17eb" fill-opacity="1"><g transform="translate(258.84432, 197.249987)"><g><path d="M 10.6875 -23.078125 L 10.6875 -4.765625 C 10.71875 -4.222656 10.765625 -3.742188 10.828125 -3.328125 C 10.890625 -2.921875 11.054688 -2.554688 11.328125 -2.234375 C 11.597656 -1.921875 11.925781 -1.6875 12.3125 -1.53125 C 12.695312 -1.382812 13.035156 -1.300781 13.328125 -1.28125 L 13.84375 -1.203125 C 14.03125 -1.171875 14.160156 -1.132812 14.234375 -1.09375 C 14.316406 -1.0625 14.375 -0.910156 14.40625 -0.640625 C 14.4375 -0.367188 14.390625 -0.191406 14.265625 -0.109375 C 14.148438 -0.0351562 13.972656 0 13.734375 0 L 1.734375 0 C 1.546875 0 1.375 -0.046875 1.21875 -0.140625 C 1.070312 -0.234375 1.03125 -0.414062 1.09375 -0.6875 C 1.113281 -0.976562 1.3125 -1.148438 1.6875 -1.203125 L 2.125 -1.28125 C 2.34375 -1.300781 2.617188 -1.382812 2.953125 -1.53125 C 3.285156 -1.6875 3.582031 -1.894531 3.84375 -2.15625 C 4.132812 -2.445312 4.351562 -2.878906 4.5 -3.453125 C 4.65625 -4.023438 4.742188 -4.539062 4.765625 -5 L 4.8125 -22.953125 C 4.8125 -23.273438 4.773438 -23.695312 4.703125 -24.21875 C 4.640625 -24.738281 4.460938 -25.171875 4.171875 -25.515625 C 3.898438 -25.890625 3.5625 -26.175781 3.15625 -26.375 C 2.757812 -26.582031 2.429688 -26.695312 2.171875 -26.71875 L 1.765625 -26.796875 C 1.660156 -26.796875 1.539062 -26.847656 1.40625 -26.953125 C 1.269531 -27.066406 1.21875 -27.226562 1.25 -27.4375 C 1.382812 -27.84375 1.632812 -28.046875 2 -28.046875 L 13.609375 -28.046875 C 14.035156 -28.015625 14.25 -27.800781 14.25 -27.40625 C 14.195312 -27 13.992188 -26.796875 13.640625 -26.796875 L 13.203125 -26.71875 C 12.460938 -26.664062 11.859375 -26.257812 11.390625 -25.5 C 10.921875 -24.738281 10.6875 -23.929688 10.6875 -23.078125 Z M 10.6875 -23.078125 "/></g></g></g></svg>