<svg xmlns="http://www.w3.org/2000/svg" xmlns:xlink="http://www.w3.org/1999/xlink" xmlns:lucid="lucid" width="682" height="562"><g transform="translate(-399 -359)" lucid:page-tab-id="0_0"><path d="M400 366a6 6 0 0 1 6-6h128a6 6 0 0 1 6 6v48a6 6 0 0 1-6 6H406a6 6 0 0 1-6-6z" stroke="#c3f7c8" stroke-width="2" fill="#c3f7c8"/><use xlink:href="#a" transform="matrix(1,0,0,1,412,372) translate(40.55 21.15)"/><use xlink:href="#b" transform="matrix(1,0,0,1,412,372) translate(58.55 21.15)"/><path d="M940 366a6 6 0 0 1 6-6h128a6 6 0 0 1 6 6v48a6 6 0 0 1-6 6H946a6 6 0 0 1-6-6z" stroke="#cfe4ff" stroke-width="2" fill="#cfe4ff"/><use xlink:href="#c" transform="matrix(1,0,0,1,952,372) translate(40.525 21.15)"/><path d="M400 866a6 6 0 0 1 6-6h128a6 6 0 0 1 6 6v48a6 6 0 0 1-6 6H406a6 6 0 0 1-6-6z" stroke="#c3f7c8" stroke-width="2" fill="#c3f7c8"/><use xlink:href="#a" transform="matrix(1,0,0,1,412,872) translate(40.55 21.15)"/><use xlink:href="#b" transform="matrix(1,0,0,1,412,872) translate(58.55 21.15)"/><path d="M940 866a6 6 0 0 1 6-6h128a6 6 0 0 1 6 6v48a6 6 0 0 1-6 6H946a6 6 0 0 1-6-6z" stroke="#cfe4ff" stroke-width="2" fill="#cfe4ff"/><use xlink:href="#c" transform="matrix(1,0,0,1,952,872) translate(40.525 21.15)"/><path d="M470 421.5v437" stroke="#c3f7c8" stroke-width="3" stroke-linecap="round" fill="none"/><path d="M1010 421.5v437" stroke="#6db1ff" stroke-width="3" stroke-linecap="round" fill="none"/><path d="M600 442.92a6 6 0 0 1 6-6h288a6 6 0 0 1 6 6v32.95a6 6 0 0 1-6 6H606a6 6 0 0 1-6-6z" stroke="#4881b3" stroke-width="2" fill="#f5fbff"/><use xlink:href="#d" transform="matrix(1,0,0,1,605,441.9148763020833) translate(0 21.666666666666668)"/><use xlink:href="#e" transform="matrix(1,0,0,1,605,441.9148763020833) translate(20 21.666666666666668)"/><use xlink:href="#f" transform="matrix(1,0,0,1,605,441.9148763020833) translate(33.333333333333336 21.666666666666668)"/><use xlink:href="#g" transform="matrix(1,0,0,1,605,441.9148763020833) translate(45.852864583333336 21.666666666666668)"/><use xlink:href="#h" transform="matrix(1,0,0,1,605,441.9148763020833) translate(58.372395833333336 21.666666666666668)"/><use xlink:href="#i" transform="matrix(1,0,0,1,605,441.9148763020833) translate(70.89192708333334 21.666666666666668)"/><use xlink:href="#j" transform="matrix(1,0,0,1,605,441.9148763020833) translate(84.22526041666667 21.666666666666668)"/><use xlink:href="#k" transform="matrix(1,0,0,1,605,441.9148763020833) translate(136.38671875 21.666666666666668)"/><use xlink:href="#l" transform="matrix(1,0,0,1,605,441.9148763020833) translate(149.72005208333334 21.666666666666668)"/><use xlink:href="#m" transform="matrix(1,0,0,1,605,441.9148763020833) translate(163.05338541666669 21.666666666666668)"/><use xlink:href="#n" transform="matrix(1,0,0,1,605,441.9148763020833) translate(175.57291666666669 21.666666666666668)"/><use xlink:href="#o" transform="matrix(1,0,0,1,605,441.9148763020833) translate(188.09244791666669 21.666666666666668)"/><use xlink:href="#p" transform="matrix(1,0,0,1,605,441.9148763020833) translate(201.42578125000003 21.666666666666668)"/><use xlink:href="#q" transform="matrix(1,0,0,1,605,441.9148763020833) translate(213.94531250000003 21.666666666666668)"/><use xlink:href="#r" transform="matrix(1,0,0,1,605,441.9148763020833) translate(226.46484375000003 21.666666666666668)"/><use xlink:href="#s" transform="matrix(1,0,0,1,605,441.9148763020833) translate(239.79817708333337 21.666666666666668)"/><use xlink:href="#t" transform="matrix(1,0,0,1,605,441.9148763020833) translate(252.31770833333337 21.666666666666668)"/><path d="M471 461h128" stroke="#4881b3" stroke-width="2" stroke-linecap="round" fill="none"/><path d="M902 460h88" stroke="#224c72" stroke-width="2" fill="none"/><path d="M902.03 460.97H901v-1.95h1.03z" stroke="#224c72" stroke-width=".05" fill="#224c72"/><path d="M1005.26 460L991 464.63v-9.26z" stroke="#224c72" stroke-width="2" fill="#224c72"/><path d="M680 506a6 6 0 0 1 6-6h288a6 6 0 0 1 6 6v50.43a6 6 0 0 1-6 6H686a6 6 0 0 1-6-6z" stroke="#4881b3" stroke-width="2" fill="#cfe4ff"/><use xlink:href="#u" transform="matrix(1,0,0,1,685,505) translate(0 22.854166666666668)"/><use xlink:href="#v" transform="matrix(1,0,0,1,685,505) translate(15.722656250000002 22.854166666666668)"/><use xlink:href="#w" transform="matrix(1,0,0,1,685,505) translate(42.845052083333336 22.854166666666668)"/><use xlink:href="#s" transform="matrix(1,0,0,1,685,505) translate(56.17838541666667 22.854166666666668)"/><use xlink:href="#x" transform="matrix(1,0,0,1,685,505) translate(68.69791666666667 22.854166666666668)"/><use xlink:href="#y" transform="matrix(1,0,0,1,685,505) translate(81.21744791666667 22.854166666666668)"/><use xlink:href="#z" transform="matrix(1,0,0,1,685,505) translate(93.73697916666667 22.854166666666668)"/><use xlink:href="#A" transform="matrix(1,0,0,1,685,505) translate(106.25651041666667 22.854166666666668)"/><use xlink:href="#B" transform="matrix(1,0,0,1,685,505) translate(118.77604166666667 22.854166666666668)"/><use xlink:href="#C" transform="matrix(1,0,0,1,685,505) translate(132.109375 22.854166666666668)"/><use xlink:href="#x" transform="matrix(1,0,0,1,685,505) translate(145.44270833333334 22.854166666666668)"/><use xlink:href="#D" transform="matrix(1,0,0,1,685,505) translate(157.96223958333334 22.854166666666668)"/><use xlink:href="#f" transform="matrix(1,0,0,1,685,505) translate(170.48177083333334 22.854166666666668)"/><use xlink:href="#E" transform="matrix(1,0,0,1,685,505) translate(183.00130208333334 22.854166666666668)"/><use xlink:href="#F" transform="matrix(1,0,0,1,685,505) translate(195.52083333333334 22.854166666666668)"/><use xlink:href="#G" transform="matrix(1,0,0,1,685,505) translate(208.85416666666669 22.854166666666668)"/><use xlink:href="#H" transform="matrix(1,0,0,1,685,505) translate(221.37369791666669 22.854166666666668)"/><use xlink:href="#F" transform="matrix(1,0,0,1,685,505) translate(233.89322916666669 22.854166666666668)"/><use xlink:href="#I" transform="matrix(1,0,0,1,685,505) translate(247.22656250000003 22.854166666666668)"/><use xlink:href="#J" transform="matrix(1,0,0,1,685,505) translate(259.74609375 22.854166666666668)"/><use xlink:href="#K" transform="matrix(1,0,0,1,685,505) translate(272.265625 22.854166666666668)"/><use xlink:href="#L" transform="matrix(1,0,0,1,685,505) translate(0 41.67578125)"/><use xlink:href="#M" transform="matrix(1,0,0,1,685,505) translate(12.51953125 41.67578125)"/><use xlink:href="#I" transform="matrix(1,0,0,1,685,505) translate(25.0390625 41.67578125)"/><use xlink:href="#J" transform="matrix(1,0,0,1,685,505) translate(37.55859375 41.67578125)"/><use xlink:href="#N" transform="matrix(1,0,0,1,685,505) translate(50.078125 41.67578125)"/><use xlink:href="#O" transform="matrix(1,0,0,1,685,505) translate(62.59765625 41.67578125)"/><use xlink:href="#P" transform="matrix(1,0,0,1,685,505) translate(75.1171875 41.67578125)"/><use xlink:href="#Q" transform="matrix(1,0,0,1,685,505) translate(87.63671875 41.67578125)"/><use xlink:href="#R" transform="matrix(1,0,0,1,685,505) translate(100.97005208333333 41.67578125)"/><path d="M600 586.56a6 6 0 0 1 6-6h288a6 6 0 0 1 6 6v32.96a6 6 0 0 1-6 6H606a6 6 0 0 1-6-6z" stroke="#4881b3" stroke-width="2" fill="#f5fbff"/><g><use xlink:href="#S" transform="matrix(1,0,0,1,605,585.5623372395834) translate(0 21.666666666666668)"/><use xlink:href="#T" transform="matrix(1,0,0,1,605,585.5623372395834) translate(15.52734375 21.666666666666668)"/><use xlink:href="#A" transform="matrix(1,0,0,1,605,585.5623372395834) translate(28.046875 21.666666666666668)"/><use xlink:href="#U" transform="matrix(1,0,0,1,605,585.5623372395834) translate(40.56640625 21.666666666666668)"/><use xlink:href="#V" transform="matrix(1,0,0,1,605,585.5623372395834) translate(53.0859375 21.666666666666668)"/><use xlink:href="#G" transform="matrix(1,0,0,1,605,585.5623372395834) translate(65.60546875 21.666666666666668)"/><use xlink:href="#q" transform="matrix(1,0,0,1,605,585.5623372395834) translate(78.125 21.666666666666668)"/><use xlink:href="#r" transform="matrix(1,0,0,1,605,585.5623372395834) translate(90.64453125 21.666666666666668)"/><use xlink:href="#W" transform="matrix(1,0,0,1,605,585.5623372395834) translate(103.97786458333333 21.666666666666668)"/><use xlink:href="#X" transform="matrix(1,0,0,1,605,585.5623372395834) translate(116.49739583333333 21.666666666666668)"/><use xlink:href="#Y" transform="matrix(1,0,0,1,605,585.5623372395834) translate(129.83072916666666 21.666666666666668)"/><use xlink:href="#Q" transform="matrix(1,0,0,1,605,585.5623372395834) translate(142.35026041666666 21.666666666666668)"/><use xlink:href="#R" transform="matrix(1,0,0,1,605,585.5623372395834) translate(155.68359375 21.666666666666668)"/></g><path d="M490 600h108" stroke="#224c72" stroke-width="2" fill="none"/><path d="M474.74 600l14.26-4.63v9.27z" stroke="#224c72" stroke-width="2" fill="#224c72"/><path d="M599 599.03V601h-1.03V599z" stroke="#224c72" stroke-width=".05" fill="#224c72"/><path d="M500 649.65a6 6 0 0 1 6-6h288a6 6 0 0 1 6 6v32.95a6 6 0 0 1-6 6H506a6 6 0 0 1-6-6z" stroke="#4881b3" stroke-width="2" fill="#c3f7c8"/><g><use xlink:href="#Z" transform="matrix(1,0,0,1,505,648.6474609375001) translate(0 21.666666666666668)"/><use xlink:href="#B" transform="matrix(1,0,0,1,505,648.6474609375001) translate(15.755208333333334 21.666666666666668)"/><use xlink:href="#f" transform="matrix(1,0,0,1,505,648.6474609375001) translate(29.088541666666668 21.666666666666668)"/><use xlink:href="#g" transform="matrix(1,0,0,1,505,648.6474609375001) translate(41.60807291666667 21.666666666666668)"/><use xlink:href="#h" transform="matrix(1,0,0,1,505,648.6474609375001) translate(54.12760416666667 21.666666666666668)"/><use xlink:href="#aa" transform="matrix(1,0,0,1,505,648.6474609375001) translate(66.64713541666667 21.666666666666668)"/><use xlink:href="#ab" transform="matrix(1,0,0,1,505,648.6474609375001) translate(79.16666666666667 21.666666666666668)"/><use xlink:href="#ac" transform="matrix(1,0,0,1,505,648.6474609375001) translate(91.68619791666667 21.666666666666668)"/><use xlink:href="#B" transform="matrix(1,0,0,1,505,648.6474609375001) translate(105.01953125 21.666666666666668)"/><use xlink:href="#ad" transform="matrix(1,0,0,1,505,648.6474609375001) translate(118.35286458333333 21.666666666666668)"/><use xlink:href="#D" transform="matrix(1,0,0,1,505,648.6474609375001) translate(131.68619791666666 21.666666666666668)"/><use xlink:href="#f" transform="matrix(1,0,0,1,505,648.6474609375001) translate(144.20572916666666 21.666666666666668)"/><use xlink:href="#Q" transform="matrix(1,0,0,1,505,648.6474609375001) translate(156.72526041666666 21.666666666666668)"/><use xlink:href="#r" transform="matrix(1,0,0,1,505,648.6474609375001) translate(170.05859375 21.666666666666668)"/><use xlink:href="#ae" transform="matrix(1,0,0,1,505,648.6474609375001) translate(183.39192708333334 21.666666666666668)"/><use xlink:href="#af" transform="matrix(1,0,0,1,505,648.6474609375001) translate(196.72526041666669 21.666666666666668)"/><use xlink:href="#q" transform="matrix(1,0,0,1,505,648.6474609375001) translate(209.24479166666669 21.666666666666668)"/><use xlink:href="#R" transform="matrix(1,0,0,1,505,648.6474609375001) translate(221.76432291666669 21.666666666666668)"/></g><path d="M600 712.73a6 6 0 0 1 6-6h288a6 6 0 0 1 6 6v32.96a6 6 0 0 1-6 6H606a6 6 0 0 1-6-6z" stroke="#4881b3" stroke-width="2" fill="#f5fbff"/><g><use xlink:href="#ag" transform="matrix(1,0,0,1,605,711.7325846354169) translate(0 21.666666666666668)"/><use xlink:href="#B" transform="matrix(1,0,0,1,605,711.7325846354169) translate(15.338541666666666 21.666666666666668)"/><use xlink:href="#f" transform="matrix(1,0,0,1,605,711.7325846354169) translate(28.671875 21.666666666666668)"/><use xlink:href="#g" transform="matrix(1,0,0,1,605,711.7325846354169) translate(41.19140625 21.666666666666668)"/><use xlink:href="#h" transform="matrix(1,0,0,1,605,711.7325846354169) translate(53.7109375 21.666666666666668)"/><use xlink:href="#i" transform="matrix(1,0,0,1,605,711.7325846354169) translate(66.23046875 21.666666666666668)"/><use xlink:href="#j" transform="matrix(1,0,0,1,605,711.7325846354169) translate(79.56380208333333 21.666666666666668)"/><use xlink:href="#m" transform="matrix(1,0,0,1,605,711.7325846354169) translate(131.72526041666666 21.666666666666668)"/><use xlink:href="#ah" transform="matrix(1,0,0,1,605,711.7325846354169) translate(144.24479166666666 21.666666666666668)"/><use xlink:href="#m" transform="matrix(1,0,0,1,605,711.7325846354169) translate(156.76432291666666 21.666666666666668)"/><use xlink:href="#n" transform="matrix(1,0,0,1,605,711.7325846354169) translate(169.28385416666666 21.666666666666668)"/><use xlink:href="#p" transform="matrix(1,0,0,1,605,711.7325846354169) translate(181.80338541666666 21.666666666666668)"/><use xlink:href="#q" transform="matrix(1,0,0,1,605,711.7325846354169) translate(194.32291666666666 21.666666666666668)"/><use xlink:href="#r" transform="matrix(1,0,0,1,605,711.7325846354169) translate(206.84244791666666 21.666666666666668)"/><use xlink:href="#i" transform="matrix(1,0,0,1,605,711.7325846354169) translate(220.17578125 21.666666666666668)"/><use xlink:href="#f" transform="matrix(1,0,0,1,605,711.7325846354169) translate(233.50911458333334 21.666666666666668)"/><use xlink:href="#ai" transform="matrix(1,0,0,1,605,711.7325846354169) translate(246.02864583333334 21.666666666666668)"/><use xlink:href="#aj" transform="matrix(1,0,0,1,605,711.7325846354169) translate(259.3619791666667 21.666666666666668)"/></g><path d="M902 729.82h88" stroke="#224c72" stroke-width="2" fill="none"/><path d="M902.03 730.8H901v-1.96h1.03z" stroke="#224c72" stroke-width=".05" fill="#224c72"/><path d="M1005.26 729.82L991 734.45v-9.27z" stroke="#224c72" stroke-width="2" fill="#224c72"/><path d="M600 775.82a6 6 0 0 1 6-6h288a6 6 0 0 1 6 6v32.95a6 6 0 0 1-6 6H606a6 6 0 0 1-6-6z" stroke="#4881b3" stroke-width="2" fill="#cfe4ff"/><g><use xlink:href="#ak" transform="matrix(1,0,0,1,605,774.8177083333336) translate(0 21.666666666666668)"/><use xlink:href="#v" transform="matrix(1,0,0,1,605,774.8177083333336) translate(15.410156250000002 21.666666666666668)"/><use xlink:href="#w" transform="matrix(1,0,0,1,605,774.8177083333336) translate(42.532552083333336 21.666666666666668)"/><use xlink:href="#s" transform="matrix(1,0,0,1,605,774.8177083333336) translate(55.86588541666667 21.666666666666668)"/><use xlink:href="#A" transform="matrix(1,0,0,1,605,774.8177083333336) translate(68.38541666666667 21.666666666666668)"/><use xlink:href="#B" transform="matrix(1,0,0,1,605,774.8177083333336) translate(80.90494791666667 21.666666666666668)"/><use xlink:href="#G" transform="matrix(1,0,0,1,605,774.8177083333336) translate(94.23828125 21.666666666666668)"/><use xlink:href="#D" transform="matrix(1,0,0,1,605,774.8177083333336) translate(106.7578125 21.666666666666668)"/><use xlink:href="#f" transform="matrix(1,0,0,1,605,774.8177083333336) translate(119.27734375 21.666666666666668)"/><use xlink:href="#al" transform="matrix(1,0,0,1,605,774.8177083333336) translate(131.796875 21.666666666666668)"/><use xlink:href="#E" transform="matrix(1,0,0,1,605,774.8177083333336) translate(145.13020833333334 21.666666666666668)"/><use xlink:href="#F" transform="matrix(1,0,0,1,605,774.8177083333336) translate(157.64973958333334 21.666666666666668)"/><use xlink:href="#I" transform="matrix(1,0,0,1,605,774.8177083333336) translate(170.98307291666669 21.666666666666668)"/><use xlink:href="#am" transform="matrix(1,0,0,1,605,774.8177083333336) translate(183.50260416666669 21.666666666666668)"/></g><path d="M982 531.22h92a6 6 0 0 1 6 6v59.82a6 6 0 0 1-6 6H919.5" stroke="#6db1ff" stroke-width="2" fill="none"/><path d="M982.03 532.2H981v-1.96h1.03z" stroke="#6db1ff" stroke-width=".05" fill="#6db1ff"/><path d="M904.24 603.04l14.26-4.64v9.27z" stroke="#6db1ff" stroke-width="2" fill="#6db1ff"/><path d="M498 666.13h-62a6 6 0 0 0-6 6v51.08a6 6 0 0 0 6 6h144.5" stroke="#54c45e" stroke-width="2" fill="none"/><path d="M499 667.1h-1.03v-1.95H499z" stroke="#54c45e" stroke-width=".05" fill="#54c45e"/><path d="M595.76 729.2l-14.26 4.64v-9.26z" stroke="#54c45e" stroke-width="2" fill="#54c45e"/><defs><path fill="#1d262b" d="M156-255c19 17 24 34 35 48 11 0 12-21 4-29-6-7-18-15-36-23zM22 50C69-8 70-72 70-189h251c7 0 9-8 2-11-9-4-16-10-22-18l-18 19H70l-23-13c4 11 5 33 5 68C52-37 49-14 19 49zm104-70c5 14 21 8 20-8-4-36-24-60-47-91l-2 1c18 41 20 48 29 98zm77-6c20-9 8-37-1-60-7-19-21-41-39-67 14 47 24 60 31 119 2 5 5 8 9 8zm72-133c-13 69-32 119-59 169l2 3c32-38 53-85 72-144 4-5 19-7 5-13-6-3-13-8-20-15zM305 2l-18 19H67l6 10h251c10 0 10-8 2-12-9-4-16-11-21-17" id="an"/><use transform="matrix(0.05,0,0,0.05,0,0)" xlink:href="#an" id="a"/><path fill="#1d262b" d="M226 11c15 2 47 12 47-8v-76h-90V36h-24V-73H76C73-23 61 10 39 42L21 26c48-58 32-177 35-281h239V8c4 36-33 29-63 27zm-43-246v62h90v-62h-90zm0 142h90v-60h-90v60zM79-173h80v-62H79v62zm0 20l-1 60h81v-60H79" id="ao"/><use transform="matrix(0.05,0,0,0.05,0,0)" xlink:href="#ao" id="b"/><path fill="#1d262b" d="M30 0v-248h33v221h125V0H30" id="ap"/><path fill="#1d262b" d="M240 0l2-218c-23 76-54 145-80 218h-23L58-218 59 0H30v-248h44l77 211c21-75 51-140 76-211h43V0h-30" id="aq"/><g id="c"><use transform="matrix(0.05,0,0,0.05,0,0)" xlink:href="#ap"/><use transform="matrix(0.05,0,0,0.05,10,0)" xlink:href="#ap"/><use transform="matrix(0.05,0,0,0.05,20,0)" xlink:href="#aq"/></g><path d="M653-1490V0H466v-1314h-10L96-1047v-204l324-239h233" id="ar"/><path d="M295 13c-75 0-135-60-135-135s60-135 135-135 135 60 135 135S370 13 295 13" id="as"/><g id="d"><use transform="matrix(0.006510416666666667,0,0,0.006510416666666667,0,0)" xlink:href="#ar"/><use transform="matrix(0.006510416666666667,0,0,0.006510416666666667,5.423177083333334,0)" xlink:href="#as"/></g><path d="M887-1451c108 97 137 193 199 273 63 0 68-119 23-165-34-40-102-85-205-131zM125 284C392-46 398-410 398-1076h1428c40 0 51-46 11-63-51-23-91-57-125-102l-102 108H398l-131-74c23 63 28 188 28 387 0 609-17 740-188 1098zm592-398c28 80 119 46 114-46-23-205-137-341-267-518l-11 6c102 233 114 273 165 558zm438-34c114-51 46-210-6-341-40-108-119-233-222-381 80 267 137 341 176 677 11 28 28 46 51 46zm409-757c-74 393-182 677-336 961l11 17c182-216 302-484 410-819 23-28 108-40 28-74-34-17-74-46-114-85zm171 916l-102 108H381l34 57h1428c57 0 57-46 11-68-51-23-91-63-119-97" id="at"/><use transform="matrix(0.006510416666666667,0,0,0.006510416666666667,0,0)" xlink:href="#at" id="e"/><path d="M1286 63c85 11 267 68 267-46v-432h-512v620H904v-620H432c-17 284-85 472-210 654l-102-91C393-182 302-859 319-1451h1360V45c23 205-188 165-358 154zm-245-1400v353h512v-353h-512zm0 808h512v-341h-512v341zM449-984h455v-353H449v353zm0 114l-6 341h461v-341H449" id="au"/><use transform="matrix(0.006510416666666667,0,0,0.006510416666666667,0,0)" xlink:href="#au" id="f"/><path d="M882-922v-563h831v563H882zm-319-45c51 165 142 307 239 421l-80 119c-68-97-142-222-182-341l17 1007H426l11-956c-57 182-154 358-250 506l-74-114c131-182 233-387 302-643H148v-108h279v-279c-74 23-148 34-210 46l-51-119c205-17 387-85 546-154l74 97-228 91v319h256v108H564zm1172 256c-119 34-250 68-387 85v273h461v114h-461V68h404v108H825V68h398v-307H762v-114h461v-256c-114 23-228 40-353 40l-40-119c302-11 597-57 836-131zm-722-319h575v-341h-575v341" id="av"/><use transform="matrix(0.006510416666666667,0,0,0.006510416666666667,0,0)" xlink:href="#av" id="g"/><path d="M1195-688c102 119 466-28 558 125l-245 381-114-68c63-85 142-182 193-279h-432V80c11 176-222 148-358 125L780 80c74 17 250 68 250-40v-569H461v-108h603L814-813l85-80 199 131 273-256H557v-102h922l91 80zM102 131c233-353 159-984 171-1553h660v-171h131v171h722v114H404l-11 740c-6 319-63 580-182 791" id="aw"/><use transform="matrix(0.006510416666666667,0,0,0.006510416666666667,0,0)" xlink:href="#aw" id="h"/><path d="M444-1087c80-11 74-125 0-171-46-28-125-108-216-125 102 97 108 119 165 250 11 28 28 46 51 46zm62 347c6-51 97-63 34-102-23-11-46-34-74-63-51 91-228 51-358 57 28 91 199 40 307 51v688c0 40-28 63-74 85 34 40 63 74 80 108C523 16 620-70 705-178l-11-17c-63 46-125 80-188 102v-649zm1297-477c0-40 102-74 46-108-28-17-57-46-85-80l-68 57H900l-125-74c17 108 23 336 23 688-6 597-40 717-256 1041l11 6C832 6 883-114 889-734v-558h825V73c6 131-171 46-267 68v23c119 28 182 63 233 119 46-11 125-85 125-171v-1331zm-477 210c-11-91 23-137 40-188l-148-46c23 51 17 154 17 233H956l28 57h250v245H927l34 51h677c40 0 51-51 6-57-40-23-68-46-91-74l-68 80h-159v-245h284c74-40-63-80-68-119-34 57-114 74-216 63zm221 683c0-46 108-80 23-119-23-17-57-34-85-68-85 91-387 68-501 0 57 137-17 393 40 540 46-11 97-28 80-102h353c-17 68 28 68 74 40 46-63 17-199 17-290zm-443 193v-273h353v273h-353" id="ax"/><use transform="matrix(0.006510416666666667,0,0,0.006510416666666667,0,0)" xlink:href="#ax" id="i"/><path d="M180 0v-1490h190v1322h690V0H180" id="ay"/><path d="M180 0v-1490h270l367 940c28 72 75 218 110 339 35-117 81-264 110-339l362-940h271V0h-187c2-448-5-837 7-1287-157 497-311 829-483 1287H842C666-458 514-784 354-1284c12 438 5 843 7 1284H180" id="az"/><path d="M182 0c6-57 125-34 182-28-34 154-91 284-154 410-28 6-137 28-125-23" id="aA"/><g id="j"><use transform="matrix(0.006510416666666667,0,0,0.006510416666666667,0,0)" xlink:href="#au"/><use transform="matrix(0.006510416666666667,0,0,0.006510416666666667,12.51953125,0)" xlink:href="#ay"/><use transform="matrix(0.006510416666666667,0,0,0.006510416666666667,20.05859375,0)" xlink:href="#ay"/><use transform="matrix(0.006510416666666667,0,0,0.006510416666666667,27.59765625,0)" xlink:href="#az"/><use transform="matrix(0.006510416666666667,0,0,0.006510416666666667,39.641927083333336,0)" xlink:href="#aA"/></g><path d="M461-870c17-34 40-80-17-85 68-108 137-228 205-375 23-28 108-40 28-74-34-17-74-46-114-85-97 370-256 643-461 899l17 17c85-74 165-159 250-267l11 1149c28-11 80-11 80-46V-869zm921 1149c114-63-34-193-114-233 159-119 302-262 421-415 17-28 119-46 51-91-23-17-57-46-85-85l-80 46H909c34-74 63-154 91-233h836c57 0 57-40 11-63-51-23-85-68-114-102l-97 114h-620c34-102 63-205 91-313h614c46 6 57-51 11-63-46-28-85-63-108-97l-97 102h-404c28-97 28-228 91-279-23-34-85-28-131-63-17 114-34 228-63 341H633l34 57h341c-23 108-57 210-91 313H536l28 51h330L769-410l68 46c23 6 46-68 68-80h694c-108 188-228 341-358 472-102-63-228-119-393-188l-17 23c205 108 364 228 466 364 23 28 46 46 80 51" id="aB"/><use transform="matrix(0.006510416666666667,0,0,0.006510416666666667,0,0)" xlink:href="#aB" id="k"/><path d="M461-1109c57-11 80-97 28-148-23-28-131-125-262-171 91 85 154 182 193 296 11 17 23 23 40 23zM302 57c245 302 933 176 1473 205 51-68 102-119 148-137v-23C1644 148 541 256 347 22c148-142 205-262 284-495 28-23 114-34 51-80-23-23-51-57-80-97-34 51-97 74-193 63 68-102 108-245 205-313 63-46-46-68-68-108l-57 63H119l28 57h341L249-484c40 34 125 6 125-46h165C482-268 448-183 334 5c-11 0-17-11-28 0-68 91-148 159-239 199 51 17 74 142 97 74 51-74 97-148 137-222zm790-1291c63-6 63-108 0-148-40-23-108-97-188-108 80 80 102 102 142 216 11 23 23 40 46 40zm251 11c108-51 125-148 228-176 46-57-85-63-114-125-34 148-51 176-131 284zm438 375c-91-46-68-290 0-324-11-40-63-57-91-102l-74 68H740l34 51h415v284H950l-97-74c0 125-40 256-102 393 0 23 6 28 23 28h319C945-245 860-166 587-12l17 11c307-142 421-210 586-484v597c17 23 85-6 91-34v-603h415c-40 296 11 387-313 302l-6 23c85 17 148 68 199 148 205-74 159-131 216-438 6-34 114-57 28-85-34-11-63-46-85-80l-74 80h-381v-245h472c23 0 28-6 28-28zm-501-307h353v284h-353v-284zm-91 580H870c28-68 51-154 63-245h256v245" id="aC"/><use transform="matrix(0.006510416666666667,0,0,0.006510416666666667,0,0)" xlink:href="#aC" id="l"/><path d="M779-870v-666h893v666H779zM506 125C699-23 819-211 853-512l125 28c-11 91-28 176-51 250 63 97 142 159 245 205v-575H688v-114h1104v114h-489v239h404v114h-404V16c137 40 324 34 506 34-28 74-23 159-165 131-358 0-609-80-774-290-63 125-159 233-284 336zM119-529l216-85v-484H130v-114h205v-381h125v381h199v114H460v427l182-91v131l-182 91V46c23 176-131 176-296 159L136 74c57 11 199 51 199-46v-506l-182 80zm791-449h631v-176H910v176zm0-274h631v-165H910v165" id="aD"/><use transform="matrix(0.006510416666666667,0,0,0.006510416666666667,0,0)" xlink:href="#aD" id="m"/><path d="M654 57c68 11 256 63 256-34v-887H182v-114h1559v114h-700V80c0 171-222 125-364 108zM387-1371v-114h1161v114H387zm1001 666c97 239 233 478 398 654l-108 97c-165-193-302-449-410-700zM154-17c159-188 290-415 364-677l125 46C546-375 427-130 256 69" id="aE"/><use transform="matrix(0.006510416666666667,0,0,0.006510416666666667,0,0)" xlink:href="#aE" id="n"/><path d="M489-1030c91-23 63-142-11-210-57-46-137-114-250-182l-11 11c125 131 154 159 222 336 11 28 28 46 51 46zm74 308c0-57 114-74 34-114-23-11-51-34-80-68l-63 80H107l34 51h319v745c0 40-23 68-57 91 40 40 63 80 85 119C602 91 704-23 801-159l-6-17C715-102 641-45 562-5v-717zm1212-461c-6-63 102-74 23-125-23-11-51-28-74-63l-68 68H672l34 57h967V74c17 131-199 57-245 63v23c125 40 176 74 205 142 46-6 142-97 142-154v-1331zm-353 85l-85 91H768l28 57h717c46 6 57-51 11-63-46-28-80-51-102-85zm0 512c0-46 119-74 28-114-28-17-57-40-85-74l-63 74c-171-6-381 28-472-57 51 182 11 432 23 649 11 40 80-6 91-23v-119h381c-17 91 17 199 97 102v-438zM944-302v-347h381v347H944" id="aF"/><use transform="matrix(0.006510416666666667,0,0,0.006510416666666667,0,0)" xlink:href="#aF" id="o"/><path d="M1604 148V-11h-472v199h-125v-1599h717V148h-119zm-472-273h472v-1172h-472v1172zM631-950c63 205 171 393 284 558l-85 108c-80-137-165-284-216-449l11 973H494l17-944c-74 228-176 393-313 575l-80-108c159-188 284-438 358-711H146v-114h347v-262l-284 51-46-108c250-34 506-85 705-171l74 97c-102 40-199 74-319 102v290h319v114H629" id="aG"/><use transform="matrix(0.006510416666666667,0,0,0.006510416666666667,0,0)" xlink:href="#aG" id="p"/><path d="M199 239v-1343h131V17h1269v-1121h131V222h-131v-91H330v108H199zm649-427c193-102 91-506 125-836H671l142-370H147v-114h1627v114H949l-91 267h245c-23 347 28 796-108 1024-57 57-205 40-307 23l-17-131c63 11 119 23 176 23zM364-319c159-91 324-193 461-307l63 97C751-410 581-301 427-205zm1109 109c-102-119-222-216-341-324l74-91 358 313zm-318-569c97-108 171-222 250-353l102 68-256 370zM660-660c-63-102-154-205-228-290l97-74c80 91 171 171 233 279" id="aH"/><use transform="matrix(0.006510416666666667,0,0,0.006510416666666667,0,0)" xlink:href="#aH" id="q"/><path d="M273-1394c85 91 125 171 171 250 46 0 63-91 23-125-17-28-74-74-182-142zm484 256c119-11 182-154 284-210-23-34-80-40-114-80-40 125-97 205-171 290zm159 433c131-119-80-205-222-250v-74h393c51 6 51-46 11-57-40-23-74-57-97-85l-85 85H694c6-114-23-273 34-336-28-28-114-23-142-46 23 68 17 267 17 381H165l28 57h358C449-814 312-689 130-575l11 23c205-91 341-205 461-375v307l-23-11c-11 57-40 125-80 205H118l28 57h324c-46 91-108 199-188 324 63 63 119-28 137-80 91 28 171 57 233 97-125 171-284 256-546 319v17c290-40 472-131 614-290 114 68 125 119 205 159 23-6 40-23 40-57C931 35 863 12 766-45c51-74 102-154 176-324 74-6 296 17 199-63-40-34-91-63-114-97l-91 102H600c23-51 63-108 108-131-6-28-68-28-97-51 131-6 68-205 80-330 91 63 114 91 176 193 11 23 23 40 46 40zm-80 335C779-228 734-131 694-80c-63-28-154-51-256-74l131-216h267zm620 188c125-233 199-449 245-814 63 0 216 11 137-63-46-17-85-46-114-85l-91 91h-324c34-74 63-165 97-267 17-23 114-46 28-80-40-11-74-34-119-68-63 370-154 637-330 882l17 17c80-85 142-176 199-279 17 250 74 478 159 677-137 210-296 341-563 461l6 17c267-85 466-199 597-398 57 97 154 216 279 353 74-34 114-63 182-17l6-23c-199-119-307-233-410-404zm-39-80c-68-159-159-393-182-649 17-28 34-51 51-85h313c-34 330-91 523-182 734" id="aI"/><use transform="matrix(0.006510416666666667,0,0,0.006510416666666667,0,0)" xlink:href="#aI" id="r"/><path d="M125 131C318-68 438-358 489-671l125 23c-23 131-51 239-91 353C637-176 728-79 887-22v-870H358v-108h1206v108h-546v341h552v114h-552V18c239 40 518 17 791 11l-46 131h-449c-415 6-631-108-836-336-74 148-148 279-256 404zM1604-996v-284H324v284H187v-393h700v-205h131v205h711v393h-125" id="aJ"/><use transform="matrix(0.006510416666666667,0,0,0.006510416666666667,0,0)" xlink:href="#aJ" id="s"/><path d="M375-1326C540-871 665-598 938-325 728-92 449 113 102 289l6 17C455 164 768-35 995-263c176 199 535 466 745 540 46-40 102-63 159-63v-28c-330-114-614-284-848-512 199-228 393-540 580-939 17-23 114-46 23-74-34-11-68-40-114-68-125 404-307 745-552 1024-210-216-393-489-592-944h-23zm649 456c51-17 63-102 23-165-28-51-102-131-228-239 40 114 148 233 165 375 11 17 23 28 40 28" id="aK"/><use transform="matrix(0.006510416666666667,0,0,0.006510416666666667,0,0)" xlink:href="#aK" id="t"/><path d="M154 0v-137l495-537c165-179 249-281 249-418 0-156-121-253-280-253-170 0-278 110-278 278H158c0-264 200-443 465-443 266 0 455 183 455 416 0 161-73 288-336 568L416-179v12h687V0H154" id="aL"/><g id="u"><use transform="matrix(0.006510416666666667,0,0,0.006510416666666667,0,0)" xlink:href="#aL"/><use transform="matrix(0.006510416666666667,0,0,0.006510416666666667,8.131510416666668,0)" xlink:href="#as"/></g><g id="v"><use transform="matrix(0.006510416666666667,0,0,0.006510416666666667,0,0)" xlink:href="#ay"/><use transform="matrix(0.006510416666666667,0,0,0.006510416666666667,7.5390625,0)" xlink:href="#ay"/><use transform="matrix(0.006510416666666667,0,0,0.006510416666666667,15.078125,0)" xlink:href="#az"/></g><path d="M358-990c28 91 142 57 119-46-28-125-148-228-284-290 97 131 114 165 165 336zm0 1172c148-102-74-341 46-523l176-563-17-6-273 552c-40 80-97 57-171 80v23C295-244 267-84 267 75c0 74 28 108 91 108zm1212-694c11-165-40-415 63-472-17-51-85-57-119-114l-74 68h-290c0-137-11-313 28-375l-159-46c17 17 28 159 28 421H694l34 57h319c0 165-11 347-28 461H507l34 51h466C893-46 768 91 415 290l6 17c358-125 597-353 688-768h46c91 387 267 592 523 751 40-63 142-57 205-85-370-114-569-307-688-666h660c63 0 57-46 6-63-57-34-97-68-125-108-51 40-57 131-165 119zm-421-461h313v461h-341c17-108 28-290 28-461" id="aM"/><use transform="matrix(0.006510416666666667,0,0,0.006510416666666667,0,0)" xlink:href="#aM" id="w"/><path d="M381-853v-666h1161v666H381zm216 358l-74 284C608-97 733 5 898 45v-631H141v-108h1633v108h-740v245h569v108h-569V63c256 17 535-11 774-28l-46 137-688 17C772 183 619 70 471-95 414 24 334 133 238 235l-97-85C312-32 414-237 465-527zm-79-466h893v-182H518v182zm0-285h893v-165H518v165" id="aN"/><use transform="matrix(0.006510416666666667,0,0,0.006510416666666667,0,0)" xlink:href="#aN" id="x"/><path d="M1559-114h-131v-63H740v63H609v-1007h296l40-176H177v-114h785l34-182 131 17-34 165h654v114h-677l-34 176h523v1007zM284 239v-1263h125V23h1365v108H409v108H284zm456-523h694v-171H740v171zm0-274h694v-182H740v182zm0-290h694v-165H740v165" id="aO"/><use transform="matrix(0.006510416666666667,0,0,0.006510416666666667,0,0)" xlink:href="#aO" id="y"/><path d="M1604-449c-57 142-119 267-205 370l398 193-68 108L1308 6c-148 137-347 193-597 228l-57-114c216-28 387-68 529-165L796-182c57-80 114-176 159-267H688v-108h319l91-210 125 40-80 171h649v108h-188zM734-774v-108h273c-34-125-57-228-108-347l102-40H756v-108h410v-216h125v216h449v108h-279l125 34-119 353h307v108H733zM114-529l245-108v-455H131v-108h228v-387h131v387h222v108H490v398l205-102 6 119-210 114V68c17 165-165 148-319 137L144 86c91 6 216 63 216-63v-523l-205 91zm899-740l114 358-97 28h313c51-114 85-256 119-387h-449zM973-233c119 34 199 63 307 108 80-80 142-188 188-324h-375" id="aP"/><use transform="matrix(0.006510416666666667,0,0,0.006510416666666667,0,0)" xlink:href="#aP" id="z"/><path d="M1570 210V96H353v142H222v-1724h1479V209h-131zM353-11h1217v-1365H353V-11zm967-313h-125v-80H723v80H598v-745h722v745zM722-512h472v-444H722v444" id="aQ"/><use transform="matrix(0.006510416666666667,0,0,0.006510416666666667,0,0)" xlink:href="#aQ" id="A"/><use transform="matrix(0.006510416666666667,0,0,0.006510416666666667,0,0)" xlink:href="#at" id="B"/><path d="M319 51c239 302 916 182 1456 210 51-68 102-119 148-137v-23C1650 147 541 260 364 16c154-142 216-250 307-489 23-23 97-23 57-68 182-114 319-222 449-358V28c23 28 85-17 102-34v-1018c51-68 102-159 154-250h410c51 6 63-46 11-57-51-28-91-63-119-102l-102 108H717l34 51h575c-216 370-250 393-609 717-23-23-51-51-80-91-28 68-119 68-222 63 63-102 97-239 188-313 63-51-40-63-63-108l-57 63H119l28 57h336L255-482c46 34 125 0 131-46h193C511-261 477-187 351 1c-6-6-23-11-28 0-74 97-159 159-256 205 51 17 74 142 97 74 57-74 108-154 154-228zm1058-916l-11 17c165 165 279 302 341 415 40 74 68 114 91 114 80-23 46-137-6-193-46-63-182-182-415-353zm-911-256c51-11 85-102 34-154-23-23-137-114-273-154 97 85 165 176 205 284 11 17 17 23 34 23" id="aR"/><use transform="matrix(0.006510416666666667,0,0,0.006510416666666667,0,0)" xlink:href="#aR" id="C"/><path d="M637-182c40-80 74-142 102-228 148-6 159 131 262 182 57-91 91-188 102-319H813v40H682v-512h432v-216H608v-119h506v-233h131v233h552v119h-552v216h461v552h-137v-80h-341c0 171-57 290-125 398 205 142 427 216 722 262l-51 119c-296-57-540-137-751-284C909 67 773 164 613 238l-68-102C682 62 818-12 920-126L789-240c-11 34-28 68-51 108zM102-688c199-262 324-546 404-905l131 34c-57 182-114 375-188 535V239H324l6-1024c-46 80-102 159-159 222zm1144-217l-6 250h336v-250h-330zM814-654h296l6-250H814v250" id="aS"/><use transform="matrix(0.006510416666666667,0,0,0.006510416666666667,0,0)" xlink:href="#aS" id="D"/><path d="M154-649v-119h1616v119H154" id="aT"/><use transform="matrix(0.006510416666666667,0,0,0.006510416666666667,0,0)" xlink:href="#aT" id="E"/><path d="M1013-1331c11-46 137-46 46-91-34-11-63-34-102-63-250 478-404 631-853 899l6 28c381-148 677-427 887-757 176 347 398 529 683 694 51-46 125-74 210-74l11-23c-387-102-688-324-887-614zm34 569c-11-57 85-85 6-114-51-6-97-17-125-28 51 358-17 842 28 1212 28-17 74-17 91-46V-762" id="aU"/><use transform="matrix(0.006510416666666667,0,0,0.006510416666666667,0,0)" xlink:href="#aU" id="F"/><path d="M1604 57c80-28 68-148 91-245l108 68c-23 131-28 319-171 319-210 0-279-199-370-336-131 148-279 279-455 375l-80-102c193-97 347-239 478-404-97-245-142-540-154-865H135v-114h910l-11-347h131c0 119 0 239 6 347h609v114h-603c17 267 46 523 119 740 108-176 199-364 267-575l108 51c-80 239-176 472-319 660 57 125 125 256 250 313zM899-324H774v-80H381v102H256v-620h643v597zM381-512h387v-302H381v302zm609 358C745-57 444 0 159 62L131-69c284-46 597-114 853-199zm540-1109c-85-80-159-171-250-245l80-85 262 233" id="aV"/><use transform="matrix(0.006510416666666667,0,0,0.006510416666666667,0,0)" xlink:href="#aV" id="G"/><path d="M307-307c336-125 620-319 825-569l125 57c-40 46-85 97-131 142h552l102 85C1456-143 921 119 272 239l-68-125c319-40 586-137 825-250-80-91-131-142-228-222l97-80 256 233c171-102 313-222 432-358h-586C824-415 619-284 380-199zm-97-780c273-119 518-296 694-506l119 57c-40 57-85 97-131 142h523l114 80C1227-927 715-631 186-495l-63-125c273-46 512-159 717-279l-245-205 85-80c97 63 188 142 273 216 137-97 267-199 370-313H765c-142 119-307 216-478 302" id="aW"/><use transform="matrix(0.006510416666666667,0,0,0.006510416666666667,0,0)" xlink:href="#aW" id="H"/><path d="M159 102V-17h717v-1314H273v-119h1382v119h-649V-17h757v119H159" id="aX"/><use transform="matrix(0.006510416666666667,0,0,0.006510416666666667,0,0)" xlink:href="#aX" id="I"/><path d="M137-250v-108h279v-1161h1070v1161h290v108H138zm415-108h802v-188H552v188zm0-586h802v-176H552v176zm0 284h802v-176H552v176zm0-569h802v-176H552v176zM1718 222c-210-80-421-199-597-336l91-85c159 131 370 228 580 302zM125 125C330 51 540-57 683-194l102 80C603 40 421 148 199 239" id="aY"/><use transform="matrix(0.006510416666666667,0,0,0.006510416666666667,0,0)" xlink:href="#aY" id="J"/><path d="M757-1087c91-28 68-142-23-199-63-40-176-137-313-165 165 125 193 137 284 319 11 28 28 46 51 46zm819-295c40 6 85-51 11-57-34-6-63-23-102-51-46 182-119 307-216 444H228l28 57h427l-6 466H148l34 57h489C608-39 489 57 119 279l11 11C562 85 722-6 773-467h484v768c23 28 91-11 102-40v-728h478c51 0 63-51 11-63-51-28-97-68-125-102l-97 108h-267v-466h404c40 0 63-46 11-63-46-28-85-57-114-91l-91 97h-256c91-74 176-188 262-336zm-319 859H779v-466h478v466" id="aZ"/><use transform="matrix(0.006510416666666667,0,0,0.006510416666666667,0,0)" xlink:href="#aZ" id="K"/><path d="M137-745c171-222 250-466 319-757l131 34c-34 108-46 193-85 290h393v-415h125v415h660v119h-660v444h552v119h-552V44h751v119H155V44h740v-540H366v-119h529v-444H463c-63 148-131 262-222 393" id="ba"/><use transform="matrix(0.006510416666666667,0,0,0.006510416666666667,0,0)" xlink:href="#ba" id="L"/><path d="M671-222c182-17 74-290 114-512H438c6 404-51 722-205 973l-114-85c222-319 193-865 193-1411h728l-11-330h125l6 330h609v114h-597c23 250 46 478 108 683 91-159 165-347 210-546l119 46c-68 245-154 461-273 654 63 137 125 284 256 353 74-23 85-142 114-222l102 63c-51 131-57 284-205 302-193-34-267-228-353-375-142 171-307 313-512 427l-80-97c222-114 398-273 535-466-85-239-125-512-148-819H442v302h466c-28 375 108 848-370 717l-23-114zm814-1069c-63-68-131-159-210-210 114-148 216 63 307 125" id="bb"/><use transform="matrix(0.006510416666666667,0,0,0.006510416666666667,0,0)" xlink:href="#bb" id="M"/><path d="M256-1434c210-11 421-46 563-131l80 102c-154 74-330 102-512 131v250h506v569H381c-6 313-46 540-171 751l-102-80C336-195 233-872 256-1435zm774-5c239-6 472-46 643-125l85 102c-176 63-387 108-597 131v415h626v114h-250V233h-125V-802h-250c0 449-57 802-262 1047l-108-91c313-307 228-984 239-1593zM387-967v347h381v-347H387" id="bc"/><use transform="matrix(0.006510416666666667,0,0,0.006510416666666667,0,0)" xlink:href="#bc" id="N"/><path d="M1365 85c63 17 165 34 165-46v-353h-302v495h-131v-495H801v495H676v-495H392v552H267v-654h512c28-57 46-114 63-165H159v-108h1610v108H978l-57 165h740V56c17 165-119 165-267 148zM887-774v-410H307v313H182v-415h705v-125H284v-102h1360v102h-631v125h728v410h-125v-307h-603v410H888zM410-996v-97h370v97H410zm728 0v-97h364v97h-364zM410-802v-97h370v97H410zm728 0v-97h364v97h-364" id="bd"/><use transform="matrix(0.006510416666666667,0,0,0.006510416666666667,0,0)" xlink:href="#bd" id="O"/><path d="M660 119V-6H330v165H205v-1445h188c40-102 63-193 85-307l131 28-91 279h273V119H660zm597-1683c-23 97-63 205-91 296h563l-40 1070c6 313-142 478-484 393l-34-137c119 6 313 80 347-57 74-313 74-757 74-1155h-472c-63 131-137 262-233 370l-91-91c165-188 267-432 330-717zM330-125h330v-495H330v495zm0-609h330v-438H330v438zm950 393c-68-159-159-302-245-444l102-63 256 438" id="be"/><use transform="matrix(0.006510416666666667,0,0,0.006510416666666667,0,0)" xlink:href="#be" id="P"/><path d="M1616-882c102-40 57-159-28-233-63-51-176-154-313-205 85 74 142 137 176 182-250 17-506 28-774 34 91-57 165-176 210-262 6-17 142-23 46-63-34-11-74-34-114-63-46 165-102 267-205 393l-302 6c28 34 57 182 91 108l495-51c-51 102-102 188-154 262H147l34 57h523C550-529 397-433 101-279l6 17c370-154 529-216 722-455h336c46 159 358 398 489 444 74-46 148-74 228-80v-17c-336-68-472-137-683-347h620c51-6 40-57-6-74-34-23-74-57-119-108l-108 125H875c57-51 91-165 176-205 11-6 17-17 17-28-6-23-63-28-85-46 171-23 330-40 484-63 46 40 68 199 148 233zM370-188c302-40 512-131 740-296 63 0 74-17 28-40-23-11-46-34-74-68-193 193-455 313-705 381zM302 74c444-40 774-176 1143-353-17-34-68-51-102-91C1053-148 655-23 296 51zm-69 233c575-11 1155-131 1530-341-17-46-85-63-114-114-347 290-859 375-1434 438" id="bf"/><use transform="matrix(0.006510416666666667,0,0,0.006510416666666667,0,0)" xlink:href="#bf" id="Q"/><use transform="matrix(0.006510416666666667,0,0,0.006510416666666667,0,0)" xlink:href="#aI" id="R"/><path d="M635 20c-292 0-500-160-510-396h192c11 142 145 229 315 229 187 0 323-105 323-260 0-161-125-274-346-274H488v-165h121c174 0 294-100 294-254 0-148-104-245-266-245-152 0-291 85-297 230H157c8-234 222-395 484-395 278 0 448 188 448 400 0 168-95 291-247 336v12c190 31 301 169 301 357 0 244-216 425-508 425" id="bg"/><g id="S"><use transform="matrix(0.006510416666666667,0,0,0.006510416666666667,0,0)" xlink:href="#bg"/><use transform="matrix(0.006510416666666667,0,0,0.006510416666666667,7.936197916666667,0)" xlink:href="#as"/></g><path d="M1388-438c108 102 250 193 404 256l-80 114c-165-74-290-159-410-273-131 131-273 228-438 313l-80-108c171-80 313-176 438-302-125-148-205-319-267-518h-91c0 364-46 637-182 865l-102-91c193-279 142-802 154-1274 341 0 649-28 910-108l74 108c-250 63-563 97-853 108v279h751l97 68c-80 228-182 398-324 563zM512-154C694 170 1365 45 1815 28l-46 148C1291 193 648 278 449-40L187 205 119 80l267-216v-375H136v-119h375v478zm569-802c46 171 119 307 228 427 114-137 193-273 245-427h-472zm-859-193c114 74 199 142 307 233l-85 108c-97-97-193-171-302-245zm262-80c-85-85-182-165-284-233l80-91c108 74 193 142 290 228" id="bh"/><use transform="matrix(0.006510416666666667,0,0,0.006510416666666667,0,0)" xlink:href="#bh" id="T"/><path d="M1263 74c85-6 262 68 256-46v-250H808v461H677V-995h410v-597h131v597h432V57c23 188-205 159-364 142zM808-330h711v-233H808v233zm0-341h711v-222H808v222zM540-461C472-233 364 28 250 227l-102-80c97-216 216-427 290-660zm-51-563c137-114 267-273 353-444l108 57c-91 182-228 364-381 489zm945-461c114 154 222 284 375 410l-80 102c-148-119-290-296-393-444zm-933 273l-290-267 80-91c102 80 210 171 302 262zm-86 495c-85-97-193-176-290-250l74-97c108 80 210 148 307 245" id="bi"/><use transform="matrix(0.006510416666666667,0,0,0.006510416666666667,0,0)" xlink:href="#bi" id="U"/><path d="M791-1388c34-68 57-142 80-210l137 40-68 171h620v922H377v-922h415zM688-6c6 148 353 74 512 74 125 0 114-108 119-233l131 51c-23 125-17 273-159 290-85 11-182 23-307 23-216-11-432 46-432-171v-393h137V-7zM512-1115h910v-165H512v165zm0 535h910v-165H512v165zm0-268h910v-159H512v159zm1030 478l250 404-114 74c-85-165-142-267-245-410zM131 57c80-114 137-250 182-387l119 46C381-136 318 0 239 126zm939-182c-74-80-154-159-245-222l80-85c80 57 188 154 256 216" id="bj"/><use transform="matrix(0.006510416666666667,0,0,0.006510416666666667,0,0)" xlink:href="#bj" id="V"/><path d="M176-956c273-148 518-370 671-631l137 51c-40 63-68 108-114 159h563l114 85c-193 307-427 529-728 711h893v796h-137v-97H688v119H557v-677c-119 57-233 97-364 137l-68-119c273-80 495-176 705-319-80-97-171-176-273-256l102-85 284 256c165-125 296-267 410-438H778c-148 171-319 302-518 415zM688 0h887v-461H688V0" id="bk"/><use transform="matrix(0.006510416666666667,0,0,0.006510416666666667,0,0)" xlink:href="#bk" id="W"/><path d="M603-1280l250-91c-23-46-68-57-102-114-97 102-296 199-603 284l6 17c119-11 239-34 353-68v330H126l28 57h324C376-427 296-381 108 28c182-222 296-393 398-694v956c11 34 91 0 97-28v-978c108 51 102 193 210 250 28 0 46-40 46-85-28-91-142-137-256-193v-119c97-17 256 34 296-34-34-46-114-80-142-125-46 40-57 114-154 102v-358zm501 210c63-97 97-262 188-353-40-23-97-34-142-68-34 313-176 540-307 757 74-68 154-165 233-279h245V119c0 23-6 40-23 40-85 0-159-11-222-34v23c102 23 154 85 193 159 51-17 148-91 148-165v-1155h438c40 0 40-51 6-68-57-23-102-63-142-114l-114 125h-501zm-34 353c-23 341-176 592-290 842 165-176 296-415 387-711 11-23 97-51 17-74-34-11-74-34-114-57zm768 791c40 0 51-40 51-97-23-284-171-472-336-711 108 313 171 387 228 762 11 28 34 46 57 46" id="bl"/><use transform="matrix(0.006510416666666667,0,0,0.006510416666666667,0,0)" xlink:href="#bl" id="X"/><path d="M1234-222c165 142 341 233 569 319l-68 125c-228-91-421-199-586-353C961 34 751 148 495 244l-63-119c250-80 449-199 620-353-165-182-290-404-364-677C637-421 466-63 216 233l-91-97c313-353 455-842 461-1502H233v-114h1013l85 68-131 455h336l97 74c-102 262-228 478-398 660zm-68-620l-34 108-131-28c68-188 137-398 182-603H717c28 461 193 796 427 1052 148-154 262-330 330-529h-307" id="bm"/><use transform="matrix(0.006510416666666667,0,0,0.006510416666666667,0,0)" xlink:href="#bm" id="Y"/><path d="M120-303v-155l652-1032h231v1020h202v167h-202V0H821v-303H120zm702-167v-782h-12L323-482v12h499" id="bn"/><g id="Z"><use transform="matrix(0.006510416666666667,0,0,0.006510416666666667,0,0)" xlink:href="#bn"/><use transform="matrix(0.006510416666666667,0,0,0.006510416666666667,8.1640625,0)" xlink:href="#as"/></g><path d="M97-1041c125-131 233-324 290-552l131 28-40 114s273-17 324 63l-125 296h239V51c23 188-176 182-341 154L547 80c85-6 250 68 245-51v-330H354c-34 199-51 415-148 552L98 160c171-262 142-717 142-1161-11 23-28 40-46 57zm830 597c74-119 148-284 176-455l125 34c-11 51-23 114-46 159h159v-188h131v188h284v114h-284v290h336v114h-336v432h-131v-432H960v-114h381v-290h-193l-108 222zm433-631c228 80 273-85 250-324h-273c-23 262-142 404-313 512l-91-108c154-74 245-205 267-404H972v-114h768c-11 296 51 677-347 575zm-922-268c-40 91-80 171-131 250h233c40-68 80-176 108-250H438zm-74 694c0 91 0 171-6 239h159v-239H363zm273 239h154v-239H637v239zM364-757h154v-228H364v228zm273-227v228h154v-228H637" id="bo"/><use transform="matrix(0.006510416666666667,0,0,0.006510416666666667,0,0)" xlink:href="#bo" id="aa"/><path d="M956-1428c279-23 535-57 728-159l91 108c-210 80-427 125-683 154v404h705v114h-273V240h-131V-807h-302c-6 438-80 785-267 1047l-102-85c273-341 233-961 233-1582zm-364 336c51 188 154 324 262 455l-80 125c-80-108-148-222-205-353l11 1104H449l11-1070c-63 233-159 455-279 626l-80-119c137-205 256-489 324-768H152v-108h296v-387h131v387h284v108H590" id="bp"/><use transform="matrix(0.006510416666666667,0,0,0.006510416666666667,0,0)" xlink:href="#bp" id="ab"/><path d="M620-1035c-11-57 102-80 17-119-28-17-57-34-85-68-57 102-324 80-410 6 57 336 6 768 23 1143 108 51 91-102 91-199h267c-17 97 17 176 97 97v-859zM256-324v-785h267v785H256zm853-814c85-57 165-193 250-296-28-23-85-28-125-63-40 148-91 250-171 358-131 6-239-6-307-57 57 449 6 996 23 1485 11 40 85-6 97-23v-1354h842V73c-6 119-102 51-205 51v23c80 34 125 80 159 142 51-11 142-85 142-171v-1132c0-40 108-80 40-114-28-17-57-40-80-74l-68 63h-597zm416 501c0-51 119-80 28-119-28-17-57-34-85-68-63 102-353 80-449 6 63 205-11 529 34 751 57-11 97-40 80-125h296c6 34-17 97 17 102 23-11 68-17 80-40v-506zm-393 387v-455h296v455h-296" id="bq"/><use transform="matrix(0.006510416666666667,0,0,0.006510416666666667,0,0)" xlink:href="#bq" id="ac"/><use transform="matrix(0.006510416666666667,0,0,0.006510416666666667,0,0)" xlink:href="#aZ" id="ad"/><path d="M381 307c68-6 159-80 159-171v-666c63-46 131-102 210-165-68-17-148 85-210 97v-375c74-6 290 34 216-57-40-23-68-51-91-80-40 28-51 85-125 80v-296c-6-40 91-63 6-80-34-6-74-11-114-28 23 97 6 279 11 404H124l28 57h290v421c-97 40-222 97-319 108 34 23 68 205 119 119 17-40 137-102 199-142v603c-17 57-165 17-216 11v28c85 28 131 63 154 131zM1587-910c6-68 114-80 34-131-28-23-63-46-91-80l-74 68h-210c17-114-17-284 34-353l-154-46c28 102 23 273 17 398H836l34 57h273c-11 188-28 347-63 489-68-46-148-97-239-142l-6 28c85 57 159 119 222 188-85 319-273 540-506 711l11 11c273-165 444-364 563-643 46 51 63 137 142 142 97-68-46-193-114-239 40-148 68-330 85-546h250V100c-28 239 347 165 410 85-85-63-91-176-80-324h-17c-34 137 46 341-154 313-40 0-63-28-63-74V-913" id="br"/><use transform="matrix(0.006510416666666667,0,0,0.006510416666666667,0,0)" xlink:href="#br" id="ae"/><path d="M1081 57c108 23 296 68 296-57v-819H768v-114h1035v114h-296V23c17 228-199 188-393 176zM722-1081c-51 119-119 233-193 336v984H398l11-831c-68 80-137 148-222 205l-68-119c210-148 375-393 489-637zm-603-11c188-125 358-296 461-501l108 68c-131 210-290 404-495 540zm808-256v-114h791v114H927" id="bs"/><use transform="matrix(0.006510416666666667,0,0,0.006510416666666667,0,0)" xlink:href="#bs" id="af"/><path d="M626 20c-262 0-458-168-468-396h184c12 133 134 229 284 229 180 0 311-137 311-326 0-192-136-335-323-335-92 0-196 33-255 78l-178-22 88-738h784v167H429l-51 435h8c61-51 160-87 263-87 273 0 474 211 474 499 0 286-210 496-497 496" id="bt"/><g id="ag"><use transform="matrix(0.006510416666666667,0,0,0.006510416666666667,0,0)" xlink:href="#bt"/><use transform="matrix(0.006510416666666667,0,0,0.006510416666666667,7.747395833333334,0)" xlink:href="#as"/></g><path d="M518-421v-114h319v-484H581v-108h256v-444h131v444h336v-444h131v444h279v108h-279v484h364v114H519zm79-1132c-40 154-85 296-137 438V239H335l6-1087-176 273-57-131c165-250 307-540 370-887zM967-535h336v-484H967v484zm762 768c-176-131-347-296-484-466l97-74c125 165 302 313 472 432zM489 148C654 29 808-125 921-301l108 68C915-45 750 114 580 245" id="bu"/><use transform="matrix(0.006510416666666667,0,0,0.006510416666666667,0,0)" xlink:href="#bu" id="ah"/><path d="M290-785c137-142 182-370 302-558-28-28-85-34-125-68-40 245-137 495-296 614 28 46 40 85 46 125 119-51 210-57 370-119-80 176-228 404-398 472 28 46 51 91 57 131 182-102 324-114 575-256l-17-23c-182 74-347 131-489 159 233-182 341-449 523-722-28-34-91-40-131-80-23 97-57 193-97 279-119 23-228 34-319 46zM148 114c28 17 74 222 119 119C426 108 591 40 830-171l-17-17C540-34 403 45 147 114zm1240-1229c-6-125 6-228 40-290-34-28-108-23-159-51 40 80 17 228 23 341H854l28 57h410v364H917l28 57h859c46 6 57-51 11-63-46-28-80-51-102-85l-85 91h-239v-364h466c57 0 57-46 11-68-51-23-85-63-114-97l-97 108h-267zm387 796c0-51 119-80 28-119-28-17-57-34-85-68l-63 63h-626l-108-57c51 222 11 523 23 779 51 34 125-28 97-119h637c6 28-17 85 17 91 23-11 74-11 80-34v-535zm-734 421v-489h637v489h-637" id="bv"/><use transform="matrix(0.006510416666666667,0,0,0.006510416666666667,0,0)" xlink:href="#bv" id="ai"/><path d="M1075-455c188 210 455 364 740 478l-68 125c-273-125-540-302-740-512v603H876v-586C694-131 449 40 171 171L108 46C387-62 643-244 819-455H125v-108h751v-159H336v-779h1257v779h-586v159h796v108h-728zm-68-370h461v-245h-461v245zm0-569v222h461v-222h-461zM466-825h410v-245H466v245zm0-347h410v-222H466v222" id="bw"/><use transform="matrix(0.006510416666666667,0,0,0.006510416666666667,0,0)" xlink:href="#bw" id="aj"/><path d="M646 20c-249 0-524-159-524-708 0-524 209-822 547-822 250 0 431 161 467 395H950c-33-129-126-227-281-227-229 0-367 208-367 566h12c80-124 212-198 367-198 255 0 467 205 467 493 0 278-198 501-502 501zm0-167c179 0 318-148 318-334 0-182-133-328-313-328-181 0-322 156-322 330 0 176 134 332 317 332" id="bx"/><g id="ak"><use transform="matrix(0.006510416666666667,0,0,0.006510416666666667,0,0)" xlink:href="#bx"/><use transform="matrix(0.006510416666666667,0,0,0.006510416666666667,7.819010416666669,0)" xlink:href="#as"/></g><path d="M1610-1223c0-51 142-85 40-131-28-17-63-40-97-74l-63 68H574l-119-63c63 216-11 535 34 768 46-17 108-17 91-91h927c-28 91 63 80 102 40v-518zM580-802v-501h927v501H580zm1178 421c6-17 108-57 40-85-28-23-57-46-80-85l-85 80H990c-11-91 131-182 40-210-34-11-80-17-125-40 28 74 11 171-6 250H188l28 51h671C750-39 546 109 119 263l11 23C602 149 830 2 972-419h683c-46 484 17 609-415 518v23c125 34 199 85 262 159 262-142 176-176 256-660" id="by"/><use transform="matrix(0.006510416666666667,0,0,0.006510416666666667,0,0)" xlink:href="#by" id="al"/><g id="am"><use transform="matrix(0.006510416666666667,0,0,0.006510416666666667,0,0)" xlink:href="#aY"/><use transform="matrix(0.006510416666666667,0,0,0.006510416666666667,12.51953125,0)" xlink:href="#as"/><use transform="matrix(0.006510416666666667,0,0,0.006510416666666667,16.360677083333332,0)" xlink:href="#as"/><use transform="matrix(0.006510416666666667,0,0,0.006510416666666667,20.201822916666664,0)" xlink:href="#as"/></g></defs></g></svg>