<?xml version="1.0" encoding="utf-8" standalone="yes"?>
<!DOCTYPE svg PUBLIC "-//W3C//DTD SVG 1.1//EN" "http://www.w3.org/Graphics/SVG/1.1/DTD/svg11.dtd">
<svg width="1272" height="694" viewBox="0 0 1272 694" style="fill:none;stroke:none;fill-rule:evenodd;clip-rule:evenodd;stroke-linecap:round;stroke-linejoin:round;stroke-miterlimit:1.5;" version="1.1" xmlns="http://www.w3.org/2000/svg" xmlns:xlink="http://www.w3.org/1999/xlink"><style class="text-font-style fontImports" data-font-family="Roboto">@import url('https://fonts.googleapis.com/css2?family=Roboto:wght@400;700&amp;display=block');</style><g id="items" style="isolation: isolate"><g id="blend" style="mix-blend-mode: normal"><g id="g-root-cp_0_g-0_v5i0bnnd07bb-fill" data-item-order="-662351" transform="translate(62.21098327636719, 314)"></g><g id="g-root-cp_1_g-1_1_deugwznd06ip-fill" data-item-order="-662336" transform="translate(56, 257)"><g id="cp_1_g-1_1_deugwznd06ip-fill" stroke="none" fill="#4e88e7"><g><path d="M 34 151C 34.000002 187.450795 63.549208 217.000002 100.000002 217.000002C 136.450795 217.000002 166.000002 187.450795 166.000002 151.000002C 166.000002 114.549208 136.450795 85.000002 100.000002 85.000002C 63.549208 85.000002 34.000002 114.549208 34.000002 151.000002M 10 151C 10 154.313709 12.686292 157 16 157C 19.313709 157 22 154.313709 22 151C 22 147.686292 19.313709 145 16 145C 12.686292 145 10 147.686292 10 151"></path></g></g><g id="cp_1_g-1_1_deugwznd06ip-fill" stroke="none" fill="#4e88e7"><g><path d="M 109 19C 109 23.9706 104.9706 28 100 28C 95.0294 28 91 23.9706 91 19C 91 14.0294 95.0294 10 100 10C 104.9706 10 109 14.0294 109 19Z"></path></g></g></g><g id="g-root-cp_2_g-2_40fmrnd04xv-fill" data-item-order="-662324" transform="translate(224, 332)"><g id="cp_2_g-2_40fmrnd04xv-fill" stroke="none" fill="#3cc583"><g><path d="M 34 76C 34.000002 112.450795 63.549208 142.000002 100.000002 142.000002C 136.450795 142.000002 166.000002 112.450795 166.000002 76.000002C 166.000002 39.549208 136.450795 10.000002 100.000002 10.000002C 63.549208 10.000002 34.000002 39.549208 34.000002 76.000002M 10 76C 10 79.313709 12.686292 82 16 82C 19.313709 82 22 79.313709 22 76C 22 72.686292 19.313709 70 16 70C 12.686292 70 10 72.686292 10 76"></path></g></g><g id="cp_2_g-2_40fmrnd04xv-fill" stroke="none" fill="#3cc583"><g><path d="M 109 208C 109 212.9706 104.9706 217 100 217C 95.0294 217 91 212.9706 91 208C 91 203.0294 95.0294 199 100 199C 104.9706 199 109 203.0294 109 208Z"></path></g></g></g><g id="g-root-cp_3_g-3_1_1ltnz8jnd06bp-fill" data-item-order="-662312" transform="translate(392, 257)"><g id="cp_3_g-3_1_1ltnz8jnd06bp-fill" stroke="none" fill="#92bd39"><g><path d="M 34 151C 34.000002 187.450795 63.549208 217.000002 100.000002 217.000002C 136.450795 217.000002 166.000002 187.450795 166.000002 151.000002C 166.000002 114.549208 136.450795 85.000002 100.000002 85.000002C 63.549208 85.000002 34.000002 114.549208 34.000002 151.000002M 10 151C 10 154.313709 12.686292 157 16 157C 19.313709 157 22 154.313709 22 151C 22 147.686292 19.313709 145 16 145C 12.686292 145 10 147.686292 10 151"></path></g></g><g id="cp_3_g-3_1_1ltnz8jnd06bp-fill" stroke="none" fill="#92bd39"><g><path d="M 109 19C 109 23.9706 104.9706 28 100 28C 95.0294 28 91 23.9706 91 19C 91 14.0294 95.0294 10 100 10C 104.9706 10 109 14.0294 109 19Z"></path></g></g></g><g id="g-root-cp_4_g-4_18itxybnd04qv-fill" data-item-order="-662300" transform="translate(560, 332)"><g id="cp_4_g-4_18itxybnd04qv-fill" stroke="none" fill="#1eabda"><g><path d="M 34 76C 34.000002 112.450795 63.549208 142.000002 100.000002 142.000002C 136.450795 142.000002 166.000002 112.450795 166.000002 76.000002C 166.000002 39.549208 136.450795 10.000002 100.000002 10.000002C 63.549208 10.000002 34.000002 39.549208 34.000002 76.000002M 10 76C 10 79.313709 12.686292 82 16 82C 19.313709 82 22 79.313709 22 76C 22 72.686292 19.313709 70 16 70C 12.686292 70 10 72.686292 10 76"></path></g></g><g id="cp_4_g-4_18itxybnd04qv-fill" stroke="none" fill="#1eabda"><g><path d="M 109 208C 109 212.9706 104.9706 217 100 217C 95.0294 217 91 212.9706 91 208C 91 203.0294 95.0294 199 100 199C 104.9706 199 109 203.0294 109 208Z"></path></g></g></g><g id="g-root-cp_5_g-5_1_qrjxgjnd0741-fill" data-item-order="-662288" transform="translate(728, 257)"><g id="cp_5_g-5_1_qrjxgjnd0741-fill" stroke="none" fill="#e0cb15"><g><path d="M 34 151C 34.000002 187.450795 63.549208 217.000002 100.000002 217.000002C 136.450795 217.000002 166.000002 187.450795 166.000002 151.000002C 166.000002 114.549208 136.450795 85.000002 100.000002 85.000002C 63.549208 85.000002 34.000002 114.549208 34.000002 151.000002M 10 151C 10 154.313709 12.686292 157 16 157C 19.313709 157 22 154.313709 22 151C 22 147.686292 19.313709 145 16 145C 12.686292 145 10 147.686292 10 151"></path></g></g><g id="cp_5_g-5_1_qrjxgjnd0741-fill" stroke="none" fill="#e0cb15"><g><path d="M 109 19C 109 23.9706 104.9706 28 100 28C 95.0294 28 91 23.9706 91 19C 91 14.0294 95.0294 10 100 10C 104.9706 10 109 14.0294 109 19Z"></path></g></g></g><g id="g-root-cp_6_g-6_dgpw6bnd05j7-fill" data-item-order="-662276" transform="translate(896, 332)"><g id="cp_6_g-6_dgpw6bnd05j7-fill" stroke="none" fill="#de8431"><g><path d="M 34 76C 34.000002 112.450795 63.549208 142.000002 100.000002 142.000002C 136.450795 142.000002 166.000002 112.450795 166.000002 76.000002C 166.000002 39.549208 136.450795 10.000002 100.000002 10.000002C 63.549208 10.000002 34.000002 39.549208 34.000002 76.000002M 10 76C 10 79.313709 12.686292 82 16 82C 19.313709 82 22 79.313709 22 76C 22 72.686292 19.313709 70 16 70C 12.686292 70 10 72.686292 10 76M 178 76C 178 79.313709 180.686292 82 184 82C 187.313709 82 190 79.313709 190 76C 190 72.686292 187.313709 70 184 70C 180.686292 70 178 72.686292 178 76"></path></g></g><g id="cp_6_g-6_dgpw6bnd05j7-fill" stroke="none" fill="#de8431"><g><path d="M 109 208C 109 212.9706 104.9706 217 100 217C 95.0294 217 91 212.9706 91 208C 91 203.0294 95.0294 199 100 199C 104.9706 199 109 203.0294 109 208Z"></path></g></g></g><g id="g-root-cp_-1_line_59dsznd0745-fill" data-item-order="-662263" transform="translate(146, 275)"></g><g id="g-root-cp_-1_line_1_1qbcwmbnd04jz-fill" data-item-order="-662259" transform="translate(482, 275)"></g><g id="g-root-cp_-1_line_2_1lvjehvnd05c9-fill" data-item-order="-662255" transform="translate(818, 275)"></g><g id="g-root-cp_-1_line_3_1hfpwdfnd064j-fill" data-item-order="-662251" transform="translate(314, 464)"></g><g id="g-root-cp_-1_line_4_144vv37nd04jp-fill" data-item-order="-662247" transform="translate(650, 464)"></g><g id="g-root-cp_-1_line_5_v98uubnd05cf-fill" data-item-order="-662243" transform="translate(986, 464)"></g><g id="g-root-tx_json_1d30rojnd07bj-fill" data-item-order="0" transform="translate(710, 218)"><g id="tx_json_1d30rojnd07bj-fill" stroke="none" fill="#46432d"><g><text style="font: 15px Roboto, sans-serif; white-space: pre;" font-size="15px" font-family="Roboto, sans-serif"><tspan x="16.4" y="31" dominant-baseline="ideographic">应用程序解析JSON并执行函数</tspan></text></g></g></g><g id="g-root-tx_llm_dju9lvnd06px-fill" data-item-order="0" transform="translate(374, 206)"><g id="tx_llm_dju9lvnd06px-fill" stroke="none" fill="#424736"><g><text style="font: 15px Roboto, sans-serif; white-space: pre;" font-size="15px" font-family="Roboto, sans-serif"><tspan x="13.37" y="28" dominant-baseline="ideographic">LLM分析提示以确定函数调用需</tspan><tspan x="110.51" y="46" dominant-baseline="ideographic">求</tspan></text></g></g></g><g id="g-root-tx_llm_18lybdvnd05xn-fill" data-item-order="0" transform="translate(38, 206)"><g id="tx_llm_18lybdvnd05xn-fill" stroke="none" fill="#3a4455"><g><text style="font: 15px Roboto, sans-serif; white-space: pre;" font-size="15px" font-family="Roboto, sans-serif"><tspan x="13.37" y="28" dominant-baseline="ideographic">应用程序定义LLM可以使用的函</tspan><tspan x="88.01" y="46" dominant-baseline="ideographic">数或工具</tspan></text></g></g></g><g id="g-root-tx__908bnnd0552-fill" data-item-order="0" transform="translate(776, 182)"><g id="tx__908bnnd0552-fill" stroke="none" fill="#46432d"><g><text style="font: bold 20px Roboto, sans-serif; white-space: pre;" font-weight="bold" font-size="20px" font-family="Roboto, sans-serif"><tspan x="12" y="34" dominant-baseline="ideographic">函数执行</tspan></text></g></g></g><g id="g-root-tx_llm_vaht0jnd07ik-fill" data-item-order="0" transform="translate(440, 170)"><g id="tx_llm_vaht0jnd07ik-fill" stroke="none" fill="#424736"><g><text style="font: bold 20px Roboto, sans-serif; white-space: pre;" font-weight="bold" font-size="20px" font-family="Roboto, sans-serif"><tspan x="12.42" y="34" dominant-baseline="ideographic">LLM分析</tspan></text></g></g></g><g id="g-root-ic_2_vcd89vnd06iw-fill" data-item-order="0" transform="translate(116, 368)"></g><g id="g-root-ic_pure_dkgturncysxs-fill" data-item-order="0" transform="translate(284, 368)"></g><g id="g-root-ic_1_1czwhernd5r7l-fill" data-item-order="0" transform="translate(452, 368)"></g><g id="g-root-ic_scri_1hfpzj7ndcttu-fill" data-item-order="0" transform="translate(620, 368)"></g><g id="g-root-ic_7_1q6zrc3ncxc0b-fill" data-item-order="0" transform="translate(788, 368)"></g><g id="g-root-ic_opti_1cuaasjnd4eto-fill" data-item-order="0" transform="translate(956, 368)"></g><g id="g-root-tx__1usfcwznd06pu-fill" data-item-order="0" transform="translate(104, 170)"><g id="tx__1usfcwznd06pu-fill" stroke="none" fill="#3a4455"><g><text style="font: bold 20px Roboto, sans-serif; white-space: pre;" font-weight="bold" font-size="20px" font-family="Roboto, sans-serif"><tspan x="12" y="34" dominant-baseline="ideographic">定义工具</tspan></text></g></g></g><g id="g-root-tx_llm_dilbfnnd04jt-fill" data-item-order="0" transform="translate(446, 38)"><g id="tx_llm_dilbfnnd04jt-fill" stroke="none" fill="#484848"><g><text style="font: 20px Roboto, sans-serif; white-space: pre;" font-size="20px" font-family="Roboto, sans-serif"><tspan x="16.53" y="58" dominant-baseline="ideographic">LLM Function Calling流程</tspan></text></g></g></g><g id="g-root-tx_llm_1cuwrvnndbf2i-fill" data-item-order="0" transform="translate(878, 590)"><g id="tx_llm_1cuwrvnndbf2i-fill" stroke="none" fill="#4c4034"><g><text style="font: 15px Roboto, sans-serif; white-space: pre;" font-size="15px" font-family="Roboto, sans-serif"><tspan x="13.37" y="28" dominant-baseline="ideographic">函数输出被提供给LLM以生成最</tspan><tspan x="95.51" y="46" dominant-baseline="ideographic">终响应</tspan></text></g></g></g><g id="g-root-tx__90en7nd9zb9-fill" data-item-order="0" transform="translate(272, 554)"><g id="tx__90en7nd9zb9-fill" stroke="none" fill="#374840"><g><text style="font: bold 20px Roboto, sans-serif; white-space: pre;" font-weight="bold" font-size="20px" font-family="Roboto, sans-serif"><tspan x="12" y="34" dominant-baseline="ideographic">用户输入</tspan></text></g></g></g><g id="g-root-tx__vcdelfnda0p3-fill" data-item-order="0" transform="translate(584, 554)"><g id="tx__vcdelfnda0p3-fill" stroke="none" fill="#32444a"><g><text style="font: bold 20px Roboto, sans-serif; white-space: pre;" font-weight="bold" font-size="20px" font-family="Roboto, sans-serif"><tspan x="16" y="34" dominant-baseline="ideographic">函数调用生成</tspan></text></g></g></g><g id="g-root-tx_llm_9rfnndbg1t-fill" data-item-order="0" transform="translate(914, 554)"><g id="tx_llm_9rfnndbg1t-fill" stroke="none" fill="#4c4034"><g><text style="font: bold 20px Roboto, sans-serif; white-space: pre;" font-weight="bold" font-size="20px" font-family="Roboto, sans-serif"><tspan x="12.42" y="34" dominant-baseline="ideographic">结果和LLM总结</tspan></text></g></g></g><g id="g-root-tx__1d30y03nda1hq-fill" data-item-order="0" transform="translate(236, 590)"><g id="tx__1d30y03nda1hq-fill" stroke="none" fill="#374840"><g><text style="font: 15px Roboto, sans-serif; white-space: pre;" font-size="15px" font-family="Roboto, sans-serif"><tspan x="13" y="31" dominant-baseline="ideographic">用户提供提示词或查询</tspan></text></g></g></g><g id="g-root-tx_llmjson_dbq9szndbegw-fill" data-item-order="0" transform="translate(542, 590)"><g id="tx_llmjson_dbq9szndbegw-fill" stroke="none" fill="#32444a"><g><text style="font: 15px Roboto, sans-serif; white-space: pre;" font-size="15px" font-family="Roboto, sans-serif"><tspan x="16.77" y="28" dominant-baseline="ideographic">LLM生成结构化的JSON对象以</tspan><tspan x="88" y="46" dominant-baseline="ideographic">调用函数</tspan></text></g></g></g><g id="g-root-cp_0_g-0_v5i0bnnd07bb-stroke" data-item-order="-662351" transform="translate(62.21098327636719, 314)"><g id="cp_0_g-0_v5i0bnnd07bb-stroke" fill="none" stroke-linecap="round" stroke-linejoin="round" stroke-miterlimit="4" stroke="#484848" stroke-width="2" stroke-dasharray="5.0, 7.0"><g><path d="M 177.578001 100C 174.501601 143.5917 138.163501 178 93.789001 178C 49.414501 178 13.076501 143.5917 10.000001 100M 345.578 88C 342.5016 44.4083 306.1635 10 261.789 10C 217.4145 10 181.0765 44.4083 178 88M 513.578016 100C 510.501616 143.5917 474.163516 178 429.789016 178C 385.414516 178 349.076516 143.5917 346.000016 100M 681.578016 88C 678.501616 44.4083 642.163516 10 597.789016 10C 553.414516 10 517.076516 44.4083 514.000016 88M 849.577955 100C 846.501555 143.5917 810.163455 178 765.788955 178C 721.414455 178 685.076455 143.5917 681.999955 100M 1017.577955 88C 1014.501555 44.4083 978.163455 10 933.788955 10C 889.414455 10 853.076455 44.4083 849.999955 88"></path></g></g></g><g id="g-root-cp_1_g-1_1_deugwznd06ip-stroke" data-item-order="-662336" transform="translate(56, 257)"><g id="cp_1_g-1_1_deugwznd06ip-stroke" fill="none" stroke-linecap="round" stroke-linejoin="round" stroke-miterlimit="4" stroke="#ffffff" stroke-width="2"><g><path d="M 34 151C 34.000002 187.450795 63.549208 217.000002 100.000002 217.000002C 136.450795 217.000002 166.000002 187.450795 166.000002 151.000002C 166.000002 114.549208 136.450795 85.000002 100.000002 85.000002C 63.549208 85.000002 34.000002 114.549208 34.000002 151.000002M 10 151C 10 154.313709 12.686292 157 16 157C 19.313709 157 22 154.313709 22 151C 22 147.686292 19.313709 145 16 145C 12.686292 145 10 147.686292 10 151"></path></g></g><g id="cp_1_g-1_1_deugwznd06ip-stroke" fill="none" stroke-linecap="round" stroke-linejoin="round" stroke-miterlimit="4" stroke="#ffffff" stroke-width="2"><g><path d="M 109 19C 109 23.9706 104.9706 28 100 28C 95.0294 28 91 23.9706 91 19C 91 14.0294 95.0294 10 100 10C 104.9706 10 109 14.0294 109 19Z"></path></g></g></g><g id="g-root-cp_2_g-2_40fmrnd04xv-stroke" data-item-order="-662324" transform="translate(224, 332)"><g id="cp_2_g-2_40fmrnd04xv-stroke" fill="none" stroke-linecap="round" stroke-linejoin="round" stroke-miterlimit="4" stroke="#ffffff" stroke-width="2"><g><path d="M 34 76C 34.000002 112.450795 63.549208 142.000002 100.000002 142.000002C 136.450795 142.000002 166.000002 112.450795 166.000002 76.000002C 166.000002 39.549208 136.450795 10.000002 100.000002 10.000002C 63.549208 10.000002 34.000002 39.549208 34.000002 76.000002M 10 76C 10 79.313709 12.686292 82 16 82C 19.313709 82 22 79.313709 22 76C 22 72.686292 19.313709 70 16 70C 12.686292 70 10 72.686292 10 76"></path></g></g><g id="cp_2_g-2_40fmrnd04xv-stroke" fill="none" stroke-linecap="round" stroke-linejoin="round" stroke-miterlimit="4" stroke="#ffffff" stroke-width="2"><g><path d="M 109 208C 109 212.9706 104.9706 217 100 217C 95.0294 217 91 212.9706 91 208C 91 203.0294 95.0294 199 100 199C 104.9706 199 109 203.0294 109 208Z"></path></g></g></g><g id="g-root-cp_3_g-3_1_1ltnz8jnd06bp-stroke" data-item-order="-662312" transform="translate(392, 257)"><g id="cp_3_g-3_1_1ltnz8jnd06bp-stroke" fill="none" stroke-linecap="round" stroke-linejoin="round" stroke-miterlimit="4" stroke="#ffffff" stroke-width="2"><g><path d="M 34 151C 34.000002 187.450795 63.549208 217.000002 100.000002 217.000002C 136.450795 217.000002 166.000002 187.450795 166.000002 151.000002C 166.000002 114.549208 136.450795 85.000002 100.000002 85.000002C 63.549208 85.000002 34.000002 114.549208 34.000002 151.000002M 10 151C 10 154.313709 12.686292 157 16 157C 19.313709 157 22 154.313709 22 151C 22 147.686292 19.313709 145 16 145C 12.686292 145 10 147.686292 10 151"></path></g></g><g id="cp_3_g-3_1_1ltnz8jnd06bp-stroke" fill="none" stroke-linecap="round" stroke-linejoin="round" stroke-miterlimit="4" stroke="#ffffff" stroke-width="2"><g><path d="M 109 19C 109 23.9706 104.9706 28 100 28C 95.0294 28 91 23.9706 91 19C 91 14.0294 95.0294 10 100 10C 104.9706 10 109 14.0294 109 19Z"></path></g></g></g><g id="g-root-cp_4_g-4_18itxybnd04qv-stroke" data-item-order="-662300" transform="translate(560, 332)"><g id="cp_4_g-4_18itxybnd04qv-stroke" fill="none" stroke-linecap="round" stroke-linejoin="round" stroke-miterlimit="4" stroke="#ffffff" stroke-width="2"><g><path d="M 34 76C 34.000002 112.450795 63.549208 142.000002 100.000002 142.000002C 136.450795 142.000002 166.000002 112.450795 166.000002 76.000002C 166.000002 39.549208 136.450795 10.000002 100.000002 10.000002C 63.549208 10.000002 34.000002 39.549208 34.000002 76.000002M 10 76C 10 79.313709 12.686292 82 16 82C 19.313709 82 22 79.313709 22 76C 22 72.686292 19.313709 70 16 70C 12.686292 70 10 72.686292 10 76"></path></g></g><g id="cp_4_g-4_18itxybnd04qv-stroke" fill="none" stroke-linecap="round" stroke-linejoin="round" stroke-miterlimit="4" stroke="#ffffff" stroke-width="2"><g><path d="M 109 208C 109 212.9706 104.9706 217 100 217C 95.0294 217 91 212.9706 91 208C 91 203.0294 95.0294 199 100 199C 104.9706 199 109 203.0294 109 208Z"></path></g></g></g><g id="g-root-cp_5_g-5_1_qrjxgjnd0741-stroke" data-item-order="-662288" transform="translate(728, 257)"><g id="cp_5_g-5_1_qrjxgjnd0741-stroke" fill="none" stroke-linecap="round" stroke-linejoin="round" stroke-miterlimit="4" stroke="#ffffff" stroke-width="2"><g><path d="M 34 151C 34.000002 187.450795 63.549208 217.000002 100.000002 217.000002C 136.450795 217.000002 166.000002 187.450795 166.000002 151.000002C 166.000002 114.549208 136.450795 85.000002 100.000002 85.000002C 63.549208 85.000002 34.000002 114.549208 34.000002 151.000002M 10 151C 10 154.313709 12.686292 157 16 157C 19.313709 157 22 154.313709 22 151C 22 147.686292 19.313709 145 16 145C 12.686292 145 10 147.686292 10 151"></path></g></g><g id="cp_5_g-5_1_qrjxgjnd0741-stroke" fill="none" stroke-linecap="round" stroke-linejoin="round" stroke-miterlimit="4" stroke="#ffffff" stroke-width="2"><g><path d="M 109 19C 109 23.9706 104.9706 28 100 28C 95.0294 28 91 23.9706 91 19C 91 14.0294 95.0294 10 100 10C 104.9706 10 109 14.0294 109 19Z"></path></g></g></g><g id="g-root-cp_6_g-6_dgpw6bnd05j7-stroke" data-item-order="-662276" transform="translate(896, 332)"><g id="cp_6_g-6_dgpw6bnd05j7-stroke" fill="none" stroke-linecap="round" stroke-linejoin="round" stroke-miterlimit="4" stroke="#ffffff" stroke-width="2"><g><path d="M 34 76C 34.000002 112.450795 63.549208 142.000002 100.000002 142.000002C 136.450795 142.000002 166.000002 112.450795 166.000002 76.000002C 166.000002 39.549208 136.450795 10.000002 100.000002 10.000002C 63.549208 10.000002 34.000002 39.549208 34.000002 76.000002M 10 76C 10 79.313709 12.686292 82 16 82C 19.313709 82 22 79.313709 22 76C 22 72.686292 19.313709 70 16 70C 12.686292 70 10 72.686292 10 76M 178 76C 178 79.313709 180.686292 82 184 82C 187.313709 82 190 79.313709 190 76C 190 72.686292 187.313709 70 184 70C 180.686292 70 178 72.686292 178 76"></path></g></g><g id="cp_6_g-6_dgpw6bnd05j7-stroke" fill="none" stroke-linecap="round" stroke-linejoin="round" stroke-miterlimit="4" stroke="#ffffff" stroke-width="2"><g><path d="M 109 208C 109 212.9706 104.9706 217 100 217C 95.0294 217 91 212.9706 91 208C 91 203.0294 95.0294 199 100 199C 104.9706 199 109 203.0294 109 208Z"></path></g></g></g><g id="g-root-cp_-1_line_59dsznd0745-stroke" data-item-order="-662263" transform="translate(146, 275)"><g id="cp_-1_line_59dsznd0745-stroke" fill="none" stroke-linecap="round" stroke-linejoin="round" stroke-miterlimit="4" stroke="#484848" stroke-width="2"><g><path d="M 10 67L 10 10"></path></g></g></g><g id="g-root-cp_-1_line_1_1qbcwmbnd04jz-stroke" data-item-order="-662259" transform="translate(482, 275)"><g id="cp_-1_line_1_1qbcwmbnd04jz-stroke" fill="none" stroke-linecap="round" stroke-linejoin="round" stroke-miterlimit="4" stroke="#484848" stroke-width="2"><g><path d="M 10 67L 10 10"></path></g></g></g><g id="g-root-cp_-1_line_2_1lvjehvnd05c9-stroke" data-item-order="-662255" transform="translate(818, 275)"><g id="cp_-1_line_2_1lvjehvnd05c9-stroke" fill="none" stroke-linecap="round" stroke-linejoin="round" stroke-miterlimit="4" stroke="#484848" stroke-width="2"><g><path d="M 10 67L 10 10"></path></g></g></g><g id="g-root-cp_-1_line_3_1hfpwdfnd064j-stroke" data-item-order="-662251" transform="translate(314, 464)"><g id="cp_-1_line_3_1hfpwdfnd064j-stroke" fill="none" stroke-linecap="round" stroke-linejoin="round" stroke-miterlimit="4" stroke="#484848" stroke-width="2"><g><path d="M 10 67L 10 10"></path></g></g></g><g id="g-root-cp_-1_line_4_144vv37nd04jp-stroke" data-item-order="-662247" transform="translate(650, 464)"><g id="cp_-1_line_4_144vv37nd04jp-stroke" fill="none" stroke-linecap="round" stroke-linejoin="round" stroke-miterlimit="4" stroke="#484848" stroke-width="2"><g><path d="M 10 67L 10 10"></path></g></g></g><g id="g-root-cp_-1_line_5_v98uubnd05cf-stroke" data-item-order="-662243" transform="translate(986, 464)"><g id="cp_-1_line_5_v98uubnd05cf-stroke" fill="none" stroke-linecap="round" stroke-linejoin="round" stroke-miterlimit="4" stroke="#484848" stroke-width="2"><g><path d="M 10 67L 10 10"></path></g></g></g><g id="g-root-tx_json_1d30rojnd07bj-stroke" data-item-order="0" transform="translate(710, 218)"></g><g id="g-root-tx_llm_dju9lvnd06px-stroke" data-item-order="0" transform="translate(374, 206)"></g><g id="g-root-tx_llm_18lybdvnd05xn-stroke" data-item-order="0" transform="translate(38, 206)"></g><g id="g-root-tx__908bnnd0552-stroke" data-item-order="0" transform="translate(776, 182)"></g><g id="g-root-tx_llm_vaht0jnd07ik-stroke" data-item-order="0" transform="translate(440, 170)"></g><g id="g-root-ic_2_vcd89vnd06iw-stroke" data-item-order="0" transform="translate(116, 368)"><g id="ic_2_vcd89vnd06iw-stroke" fill="none" stroke-linecap="round" stroke-linejoin="round" stroke-miterlimit="4" stroke="#ffffff" stroke-width="2"><g><path d="M 29.375 58.375248C 30.625 58.375248 31.625 57.875252 32.375 57.125248C 33.125 56.375252 33.625 55.125 33.625 54.125L 33.625 40.875248C 36.875 39.375252 39.375 35.875248 39.375 31.875124C 39.375 27.625124 36.875 24.125126 33.125 22.625124L 33.125 23.125126L 33.125 29.375126C 33.125 31.375124 31.375 33.125122 29.375 33.125122C 27.375 33.125122 25.625 31.375124 25.625 29.375126L 25.625 23.125126L 25.625 22.625124C 21.875 24.125126 19.375 27.625124 19.375 31.875124C 19.375 35.875248 21.625 39.125248 25.125 40.875248L 25.125 54.125C 24.875 56.375 26.875 58.375248 29.375 58.375248ZM 11.875 16.875C 11.875 14.125 14.125 11.875 16.875 11.875L 63.125 11.875C 65.875 11.875 68.125 14.125 68.125 16.875L 68.125 63.125C 68.125 65.875 65.875 68.125 63.125 68.125L 16.875 68.125C 14.125 68.125 11.875 65.875 11.875 63.125L 11.875 16.875ZM 21.875 46.125L 36.875 46.125M 56.875 53.625C 56.875 56.125 54.875 57.875 52.625 57.875C 50.125 57.875 48.375 55.875 48.375 53.625L 48.375 39.875L 56.875 39.875L 56.875 53.625ZM 52.625 39.875L 52.625 22.625124M 44.375 49.875L 60.625 49.875"></path></g></g></g><g id="g-root-ic_pure_dkgturncysxs-stroke" data-item-order="0" transform="translate(284, 368)"><g id="ic_pure_dkgturncysxs-stroke" fill="none" stroke-linecap="round" stroke-linejoin="round" stroke-miterlimit="4" stroke="#ffffff" stroke-width="2"><g><path d="M 32.5 37.5L 27.5 42.5L 47.5 42.5L 52.5 37.5L 32.5 37.5ZM 32.5 31.875L 27.5 26.875L 47.5 26.875L 52.5 31.875L 32.5 31.875ZM 32.5 53.125L 27.5 48.125L 47.5 48.125L 52.5 53.125L 32.5 53.125ZM 23.125 57.900002L 11.975 46.775002C 11.501719 46.305584 11.235504 45.666595 11.235504 45C 11.235504 44.333405 11.501719 43.694416 11.975 43.224998L 23.125 32.099998L 26.65 35.625L 17.275 45L 26.65 54.375ZM 56.875 22.1L 68.024994 33.224998C 68.498283 33.694416 68.764496 34.333405 68.764496 35C 68.764496 35.666595 68.498283 36.305584 68.024994 36.775002L 56.875 47.900002L 53.349998 44.375L 62.724998 35L 53.349998 25.625Z"></path></g></g></g><g id="g-root-ic_1_1czwhernd5r7l-stroke" data-item-order="0" transform="translate(452, 368)"><g id="ic_1_1czwhernd5r7l-stroke" fill="none" stroke-linecap="round" stroke-linejoin="round" stroke-miterlimit="4" stroke="#ffffff" stroke-width="2"><g><path d="M 58.727497 41.25L 58.727497 26.1875C 58.727497 17.937746 52.039753 11.25 43.790001 11.25L 13.7275 11.25C 12.346788 11.25 11.2275 12.369288 11.2275 13.75L 11.2275 66.25C 11.2275 67.630707 12.346788 68.75 13.7275 68.75L 21.227501 68.75M 46.227501 11.45L 46.227501 21.25C 46.227501 22.630713 47.346786 23.75 48.727501 23.75L 58.527496 23.75M 37.477501 53.75C 37.477501 56.511425 35.238922 58.75 32.477501 58.75L 28.727501 58.75L 28.727501 48.75L 32.477501 48.75C 35.238922 48.75 37.477501 50.988575 37.477501 53.75ZM 37.477501 63.75C 37.477501 66.511429 35.238922 68.75 32.477501 68.75L 28.727501 68.75L 28.727501 58.75L 32.477501 58.75C 35.238922 58.75 37.477501 60.988575 37.477501 63.75ZM 43.727501 68.75L 43.727501 48.75L 48.727501 58.75L 53.727497 48.75L 53.727497 68.75M 68.727501 53.75C 68.727501 56.511425 66.488922 58.75 63.727497 58.75L 58.727497 58.75L 58.727497 48.75L 63.727497 48.75C 66.488922 48.75 68.727501 50.988575 68.727501 53.75ZM 58.727497 68.75L 58.727497 58.75"></path></g></g></g><g id="g-root-ic_scri_1hfpzj7ndcttu-stroke" data-item-order="0" transform="translate(620, 368)"><g id="ic_scri_1hfpzj7ndcttu-stroke" fill="none" stroke-linecap="round" stroke-linejoin="round" stroke-miterlimit="4" stroke="#ffffff" stroke-width="2"><g><path d="M 13.75 11.25L 66.25 11.25C 66.25 11.25 68.75 11.25 68.75 13.75L 68.75 66.25C 68.75 66.25 68.75 68.75 66.25 68.75L 13.75 68.75C 13.75 68.75 11.25 68.75 11.25 66.25L 11.25 13.75C 11.25 13.75 11.25 11.25 13.75 11.25M 48.75 55C 48.75 58.451782 51.548218 61.25 55 61.25C 58.451782 61.25 61.25 58.451782 61.25 55C 61.25 51.550003 58.75 50 55 48.75C 51.25 47.5 48.75 45.950001 48.75 42.5C 48.75 39.048222 51.548218 36.25 55 36.25C 58.451782 36.25 61.25 39.048222 61.25 42.5M 26.25 53.75C 26.250002 57.892136 29.607864 61.25 33.75 61.25C 37.892136 61.25 41.25 57.892136 41.25 53.75L 41.25 36.25"></path></g></g></g><g id="g-root-ic_7_1q6zrc3ncxc0b-stroke" data-item-order="0" transform="translate(788, 368)"><g id="ic_7_1q6zrc3ncxc0b-stroke" fill="none" stroke-linecap="round" stroke-linejoin="round" stroke-miterlimit="4" stroke="#ffffff" stroke-width="2"><g><path d="M 44.375 30L 21.875 30C 21.125 30 20.625 29.5 20.625 28.75L 20.625 21.25C 20.625 20.5 21.125 20 21.875 20L 44.375 20C 45.125 20 45.625 20.5 45.625 21.25L 45.625 28.75C 45.625 29.25 45.125 30 44.375 30ZM 44.375 53.75L 21.875 53.75C 21.125 53.75 20.625 53.25 20.625 52.5L 20.625 45C 20.625 44.25 21.125 43.75 21.875 43.75L 44.375 43.75C 45.125 43.75 45.625 44.25 45.625 45L 45.625 52.5C 45.625 53 45.125 53.75 44.375 53.75ZM 59.625 55.375L 53.875 49.625C 53.375 49.125 53.375 48.375 53.875 47.875L 59.625 42.125C 60.125 41.625 60.875 41.625 61.375 42.125L 67.125 47.875C 67.625 48.375 67.625 49.125 67.125 49.625L 61.375 55.375C 61.125 55.875 60.125 55.875 59.625 55.375ZM 11.875 13.75L 11.875 47.5C 11.875 48.25 12.375 48.75 13.125 48.75L 19.375 48.75M 11.875 25L 20.625 25M 45.625 25L 59.375 25C 60.125 25 60.625 25.5 60.625 26.25L 60.625 41.68M 45.625 48.75L 53.5 48.75M 60.625 55.665001L 60.625 65C 60.625 65.75 61.125 66.25 61.875 66.25L 68.125 66.25"></path></g></g></g><g id="g-root-ic_opti_1cuaasjnd4eto-stroke" data-item-order="0" transform="translate(956, 368)"><g id="ic_opti_1cuaasjnd4eto-stroke" fill="none" stroke-linecap="round" stroke-linejoin="round" stroke-miterlimit="4" stroke="#ffffff" stroke-width="2"><g><path d="M 40 32.974998L 18.275 32.974998C 14.395267 32.975094 11.250172 36.120266 11.250172 40C 11.250172 43.879734 14.395267 47.024906 18.275 47.024998L 32.974998 47.025002L 32.974998 61.725002C 32.975094 65.604736 36.120266 68.749832 40 68.749832C 43.879734 68.749832 47.024906 65.604736 47.024998 61.724998L 47.025002 40C 47.024998 36.120201 43.879799 32.974998 40 32.974998ZM 61.725002 11.25L 40 11.25C 36.120266 11.250094 32.97517 14.395267 32.97517 18.275C 32.97517 22.154734 36.120266 25.299906 40 25.299999L 54.699997 25.299999L 54.699997 40C 54.699902 43.879868 57.845131 47.025169 61.724998 47.025169C 65.604866 47.025169 68.750092 43.879868 68.75 40L 68.75 18.275C 68.75 14.3952 65.604797 11.25 61.724998 11.25ZM 11.25 40C 11.249906 43.879868 14.395133 47.025169 18.275 47.025169C 22.154867 47.025169 25.300095 43.879868 25.299999 40C 25.300095 36.120132 22.154867 32.974827 18.275 32.974827C 14.395133 32.974827 11.249906 36.120132 11.25 40"></path></g></g></g><g id="g-root-tx__1usfcwznd06pu-stroke" data-item-order="0" transform="translate(104, 170)"></g><g id="g-root-tx_llm_dilbfnnd04jt-stroke" data-item-order="0" transform="translate(446, 38)"></g><g id="g-root-tx_llm_1cuwrvnndbf2i-stroke" data-item-order="0" transform="translate(878, 590)"></g><g id="g-root-tx__90en7nd9zb9-stroke" data-item-order="0" transform="translate(272, 554)"></g><g id="g-root-tx__vcdelfnda0p3-stroke" data-item-order="0" transform="translate(584, 554)"></g><g id="g-root-tx_llm_9rfnndbg1t-stroke" data-item-order="0" transform="translate(914, 554)"></g><g id="g-root-tx__1d30y03nda1hq-stroke" data-item-order="0" transform="translate(236, 590)"></g><g id="g-root-tx_llmjson_dbq9szndbegw-stroke" data-item-order="0" transform="translate(542, 590)"></g></g></g><path id="whye4aror9clr" d="M65.283 12.757a.35.35 0 0 0 .584.157l5.203-5.141-6.183 3.523.396 1.461zm-2.216-11.7a.35.35 0 0 0-.522.305v3.111l3.276-1.868-2.754-1.548zm3.728 2.105l-4.25 2.421v2.445l6.391-3.644-2.141-1.222zm4.708 3.303a.35.35 0 0 0 0-.609l-1.592-.9-7.365 4.199v1.782a.35.35 0 0 0 .523.305l8.435-4.777z M44.542 2.513c0-.433.355-.783.792-.783s.792.35.792.783-.355.783-.792.783-.792-.35-.792-.783zm59.171 0c0-.433.355-.783.792-.783s.792.35.792.783-.355.783-.792.783-.792-.35-.792-.783zm-85.951 7.636h-1.27v-.487c-.276.201-.864.609-1.881.609-1.202 0-2.274-.794-2.137-2.078.118-1.106 1.153-1.584 1.848-1.727l2.17-.345c0-.539-.29-.956-1.064-1.006s-1.21.305-1.571 1.017l-1.124-.605c1.218-2.631 5.029-1.764 5.029.414v4.207zm-1.27-2.86c.006.396-.062 1.112-.819 1.59-.587.37-1.841.299-1.903-.395-.049-.555.461-.791.906-.898l1.816-.297zm72.662 2.86h-1.27v-.487c-.276.201-.864.609-1.881.609-1.202 0-2.274-.794-2.137-2.078.118-1.106 1.153-1.584 1.848-1.727l2.17-.345c0-.539-.29-.956-1.064-1.006s-1.21.305-1.571 1.017l-1.124-.605c1.218-2.631 5.029-1.764 5.029.414v4.207zm-1.27-2.86c.006.396-.062 1.112-.82 1.59-.587.37-1.841.299-1.903-.395-.049-.555.461-.791.906-.898l1.816-.297zM99.096 10.149H97.85v-8.45h1.246v4.895l2.68-2.559h1.738l-2.633 2.535 2.715 3.578h-1.556l-2.077-2.707-.867.844v1.863zm6.053-6.114h-1.255v6.113h1.255V4.035zm-59.2 0h-1.255v6.113h1.255V4.035zm5.584 6.113V1.697h1.255v2.695c.361-.346 1-.485 1.47-.485 1.452 0 2.477 1.082 2.457 2.448v3.792h-1.27v-3.68c0-.408-.214-1.339-1.315-1.339-.968 0-1.342.756-1.342 1.339v3.681h-1.255zm-4.76-4.894V4.039h.621a.45.45 0 0 0 .45-.45v-.855h1.251v1.305h1.309v1.215h-1.309v3.109c0 .293.105.664.648.664.365 0 .531-.035.736-.07v1.137s-.361.113-.857.113c-1.398 0-1.777-1.051-1.777-1.788V5.254h-1.071zM36.528 4.039h-1.394l2.191 6.106h1.125l1.234-3.918 1.238 3.918h1.129l2.188-6.106h-1.383l-1.359 3.93-1.256-3.93h-1.124l-1.242 3.957-1.348-3.957zM26.212 7.141c-.02 1.566 1.187 3.129 3.223 3.129 1.566 0 2.383-.918 2.734-1.719L31.172 8c-.315.399-.801 1.094-1.738 1.094-1.145 0-1.825-.781-1.891-1.52h4.625c.074-.284.148-.995-.03-1.559-.336-1.064-1.221-2.102-2.839-2.102s-3.088 1.152-3.088 3.227zm1.363-.75h3.348c-.055-.43-.566-1.301-1.623-1.301a1.79 1.79 0 0 0-1.725 1.301zm-8.758.75c.038 1.758 1.277 3.133 3.145 3.133 1.074 0 1.723-.477 1.961-.672v.547h1.242V1.703h-1.258v2.888c-.414-.36-1.062-.68-1.93-.68-1.91 0-3.198 1.473-3.16 3.23zm1.309-.08c0 1.119.723 1.978 1.836 1.978a1.88 1.88 0 0 0 1.94-1.904c0-1.371-1.011-1.99-1.972-1.99s-1.805.798-1.805 1.916zm76.683-.028C96.771 5.275 95.532 3.9 93.664 3.9c-1.074 0-1.723.477-1.961.672v-.547h-1.242v8.22h1.258V9.583c.414.36 1.063.68 1.93.68 1.91 0 3.198-1.473 3.16-3.23zm-1.309.08c0-1.119-.723-1.978-1.836-1.978a1.88 1.88 0 0 0-1.94 1.904c0 1.371 1.011 1.99 1.972 1.99S95.5 8.231 95.5 7.113zM106.441 10.173V4.036h1.254v.382c.361-.346 1-.485 1.47-.485 1.452 0 2.477 1.082 2.457 2.448v3.792h-1.27V6.492c0-.408-.214-1.339-1.315-1.339-.969 0-1.342.756-1.342 1.339v3.681h-1.254zm-30.383-.021V1.824h1.084l4.215 5.777V1.824h1.32v8.328h-1.094l-4.207-5.796v5.796h-1.319zM5.24 10.149H4V2.377h1.014l2.664 3.597 2.654-3.592h1.03v7.766h-1.256V4.762L7.678 8.068 5.24 4.742v5.407z" transform="translate(20, 660)" fill="#80808088" stroke="none"></path></svg>